<?xml version="1.0" encoding="UTF-8"?>
<svg id="Layer_2" data-name="Layer 2" xmlns="http://www.w3.org/2000/svg" viewBox="0 0 443.49 91.05">
  <g id="Layer_1-2" data-name="Layer 1">
    <g>
      <g id="leuphana">
        <path d="M306.89,68.44h-4.14v12.87h12.87v-2.07h-8.74v-6.67M332.37,81.31v-2.07h-10.2v-3.47h6.07v-2.07h-6.07v-3.2h10.2v-2.07h-14.41v12.87s14.41,0,14.41,0ZM363.72,72.37c0,.6-.27,1.13-.6,1.47-.33.27-.93.4-1.93.4h-3.94v-3.74h3.87c.4,0,.93,0,1.2.07.33,0,.67.2.93.47.33.33.47.8.47,1.27M368.25,72.31c0-1.73-1.07-3.13-2.6-3.6-.73-.2-1.47-.27-2.53-.27h-10v12.87h4.14v-5h5.14c2.07,0,3.27-.27,4.27-.87,1-.67,1.6-1.8,1.6-3.13M385.79,81.31v-12.87h-4.14v5.27h-7.14v-5.27h-4.14v12.87h4.14v-5.4h7.14v5.4h4.14ZM398,75.31h-4.74l2.4-4.4,2.33,4.4h0ZM406.14,81.31l-6.94-12.87h-4.54l-5,9.07c-.2.33-2.13,3.8-2.13,3.8h2.4l2.33-4.14h6.74l2.2,4.14M423.01,68.44h-2.13v8.74l-7.94-8.74h-4.74v12.87h2.13v-8.87l8.14,8.87h4.54v-12.87ZM435.35,75.31h-4.74l2.4-4.4,2.33,4.4ZM443.49,81.31l-6.94-12.87h-4.54l-5,9c-.2.33-2.13,3.8-2.13,3.8h2.47l2.33-4.14h6.74l2.2,4.14M348.38,68.44h-1.8v7.74c0,.53-.07,1-.2,1.33-.13.53-.4,1.07-.8,1.33-.53.47-1.33.73-2.13.73-1.27,0-2.33-.4-3-1.07-.33-.33-.53-.8-.67-1.27-.13-.53-.13-1.07-.13-2v-6.87h-4.4v8c0,1.67.33,2.6,1.2,3.53.87.93,2,1.4,3.74,1.67h.2c.67.07,1.33.13,1.93.13s.13,0,.2,0h.2c2.93,0,4.87-.67,5.94-2,.8-1,1-1.87,1-3.94v-7.4h-1.4l.13.07Z" style="fill: #000; stroke-width: 0px;"/>
        <g id="hexagon">
          <path d="M373.07,2.87l22.32,12.73.87-1.57-22.32-12.73s-.87,1.57-.87,1.57Z" style="fill: #1a171b; stroke-width: 0px;"/>
          <path d="M394.52,14.03h1.57v25.46h-1.57V14.03Z" style="fill: #1a171b; fill-rule: evenodd; stroke-width: 0px;"/>
          <path d="M373.77,1.3l-22.32,12.73.87,1.57,22.32-12.73s-.87-1.57-.87-1.57Z" style="fill: #1a171b; stroke-width: 0px;"/>
          <path d="M352.85,13.33l42.89,25.11-.87,1.39-42.89-25.11s.87-1.39.87-1.39Z" style="fill: #1a171b; fill-rule: evenodd; stroke-width: 0px;"/>
          <path d="M353.02,39.83l-.87-1.39,42.72-25.11.87,1.39s-42.72,25.11-42.72,25.11Z" style="fill: #1a171b; stroke-width: 0px;"/>
          <path d="M373.07,1.82h1.57v49.69h-1.57V1.82Z" style="fill: #1a171b; fill-rule: evenodd; stroke-width: 0px;"/>
          <path d="M373.94,52.21l-22.32-12.55.87-1.57,22.32,12.55s-.87,1.57-.87,1.57Z" style="fill: #1a171b; stroke-width: 0px;"/>
          <path d="M373.94,52.21l-.87-1.57,22.32-12.73.87,1.57-22.32,12.73Z" style="fill: #1a171b; stroke-width: 0px;"/>
          <path d="M351.63,14.03h1.57v25.46h-1.57V14.03Z" style="fill: #1a171b; fill-rule: evenodd; stroke-width: 0px;"/>
        </g>
        <path d="M328.77,88.85c0,1.8-1.4,2.13-2.53,2.13s-2.53-.4-2.53-2.13v-2.87h.6v2.87c0,1.13.73,1.6,1.93,1.6s1.93-.53,1.93-1.6v-2.87h.6s0,2.87,0,2.87ZM330.04,85.98h.87l3.67,4v-4h.6v4.87h-.6l-3.94-4.34v4.34h-.53v-4.87h-.07ZM336.37,85.98h.6v4.87h-.6v-4.87ZM338.24,85.98l2.13,4.27,2.13-4.27h.67l-2.53,4.87h-.6l-2.53-4.87h.73ZM343.84,85.98h4.34v.53h-3.74v1.53h3.13v.53h-3.13v1.73h3.87v.53h-4.47v-4.87h0ZM349.11,85.98h2.8c.8,0,1.93.2,1.93,1.33s-.93,1.33-1.53,1.33l1.6,2.2h-.73l-1.6-2.13h-1.93v2.13h-.6v-4.87h.07ZM349.64,88.18h2.07c.87,0,1.47-.13,1.47-.87s-.67-.8-1.47-.8h-2.07v1.67ZM355.11,89.45c.27.4.73,1,2.2,1s1.8-.2,1.8-1c0-1.47-4.27-.2-4.27-2.13s.93-1.47,2.27-1.47,2.07.53,2.4,1l-.4.33c-.2-.2-.67-.87-2-.87s-1.67.27-1.67.87c0,1.47,4.27,0,4.27,2.27s-.8,1.47-2.47,1.47-2.2-.67-2.6-1.13l.47-.4v.07ZM360.65,85.98h.6v4.87h-.6v-4.87ZM364.38,86.51h-2.33v-.53h5.34v.53h-2.4v4.34h-.6v-4.34ZM370.19,88.91l-2.53-2.93h.8l2.07,2.4,2.07-2.4h.8l-2.53,2.93v2h-.6v-2h-.07ZM376.52,85.98h.6v4.34h3.87v.53h-4.47s0-4.87,0-4.87ZM386.79,88.85c0,1.8-1.4,2.13-2.53,2.13s-2.53-.4-2.53-2.13v-2.87h.6v2.87c0,1.13.73,1.6,1.93,1.6s1.93-.53,1.93-1.6v-2.87h.6v2.87ZM383.39,84.78h.6v.67h-.6v-.67h0ZM384.59,84.78h.6v.67h-.6v-.67h0ZM388.13,85.98h.87l3.67,4v-4h.6v4.87h-.6l-3.94-4.34v4.34h-.53v-4.87h-.07ZM394.46,85.98h4.34v.53h-3.74v1.53h3.13v.53h-3.13v1.73h3.87v.53h-4.47v-4.87h0ZM399.67,85.98h2.8c.53,0,1.87,0,1.87,1.27,0,.47-.27.87-.73,1,.53.13.93.67.93,1.2,0,1.33-1.4,1.4-2.4,1.4h-2.53v-4.87h.07ZM400.27,88.05h2.07c.67,0,1.47-.13,1.47-.8s-.8-.8-1.67-.8h-1.87v1.6h0ZM400.27,90.32h2.27c.73,0,1.4-.13,1.4-.87s-.53-.93-1.33-.93h-2.33v1.8ZM410.74,88.85c0,1.8-1.4,2.13-2.53,2.13s-2.53-.4-2.53-2.13v-2.87h.6v2.87c0,1.13.73,1.6,1.93,1.6s1.93-.53,1.93-1.6v-2.87h.6v2.87h0ZM412.01,85.98h2.8c.8,0,1.93.2,1.93,1.33s-.93,1.33-1.53,1.33l1.6,2.2h-.73l-1.6-2.13h-1.93v2.13h-.6v-4.87h.07ZM412.61,88.18h2.07c.87,0,1.47-.13,1.47-.87s-.67-.8-1.47-.8h-2.07v1.67ZM422.94,88.51v2.4h-.53v-.73c-.33.4-.87.8-1.93.8-1.87,0-2.8-1.13-2.8-2.53s1.13-2.6,2.8-2.6,2.07.53,2.4,1.33l-.47.27c-.33-.73-1.13-1.2-1.93-1.13-1.4,0-2.13.73-2.13,2.13s.73,1.93,2.2,1.93,1.87-.4,1.93-1.47h-2v-.53h2.53l-.07.13Z" style="fill: #1a171b; stroke-width: 0px;"/>
      </g>
      <g id="mpi">
        <g id="MPG_Minerva" data-name="MPG Minerva">
          <g>
            <path d="M177.29.08c-15.22,0-27.59,12.37-27.59,27.59s12.37,27.59,27.59,27.59,27.59-12.37,27.59-27.59S192.5.08,177.29.08h0ZM177.29,54.49c-14.79,0-26.82-12.03-26.82-26.83S162.51.85,177.29.85s26.82,12.03,26.82,26.82-12.03,26.83-26.82,26.83Z" style="fill: #1d1d1b; stroke-width: 0px;"/>
            <path d="M193.48,25.56c-.39-.8-.12-1.32-.24-1.9-.09-.43-.73-1.85-1.13-2.83-.19-.46.99-.35.11-2.02-.03-.05,1.21-.51-.03-1.45-.69-.53-1.18-1.18-1.56-1.75-.05-.08-.11-.24,0-.34.7-.62.71-1.52-.04-1.97-.55-.33-1.18,0-1.75.38-.19.12-.29.2-.48.12-.11-.04-.3-.18-.47-.3.71-.69.85-1.38.8-1.48-.04-.08-1.21-.34-2.67.26-.04-.02-.07-.04-.11-.05.6-1.03.26-1.76.22-1.82h0c1.09-1.52,2.17-2.53,3.24-3.51l.03-.03c.07-.07.1-.15-.04-.23-.11-.07-.14-.09-.28-.16-3.58-1.99-7.66-3.04-11.79-3.04-13.37,0-24.25,10.88-24.25,24.25,0,7.74,3.93,15.22,10.36,19.86.43.31.73.43.73.43.11.04.22.04.28-.05l.1-.12c.06-.08.09-.16.09-.22,0-.18-.25-.33-.55-.78-.87-1.29-1.25-2.75-1.25-3.98,0-1.34.41-2.56,1.19-3.58.96,1.01,3.08,2.86,3.03,4.55-.05,1.89-1.82,1.8-1.44,3.22.24.89.9.53,1.03,1.2.2,1.18,1.77,1.92,2.46,1.82.17-.03.31.11.64.45.46.47,1.62.41,2.13.32.48-.09,1.1.36,2.11.25,1.27-.14,1.6-.24,2.14-.25.92-.02,5.92-.09,9.48.47.61.1.81-.18.53-.66-1.29-2.24-1.46-4.15-.73-6.55,1.32.09,3.2.45,5.69-1.05.89-.53,1.38-1.66,1.33-2.5-.03-.54-.26-1.24-.12-1.77.19-.72.33-.7.53-.84.95-.67.26-1.2.11-1.25.29-.11.61-.74.27-1.2-.17-.18-.68-1.63-.09-1.94.64-.32,1.38-.46,2.12-.79.51-.21.91-.81.62-1.6-.35-.95-2.29-5.39-2.35-5.52l-.03-.04ZM166.71,47.15c-.18.04-.78.06-.65-.72.08-.48.61-.68.87-.41-.05.38-.18.75-.23,1.13h0ZM189.57,14.06c.32-.2.65-.28.85-.09.69.68-.75,1.06-.45,1.59.49.86,1.27,1.68,1.96,2.21.32.25.37.81-.87,1.07-1.25.25-6.21,1.57-8.83,4.34-3.28,3.47-5.37,7.97-5.65,7.36-.29-.62-.95-.73-.84-.9,4.71-8.11,12.08-14.49,13.82-15.57ZM191.73,19.76c-.27.77-2.41,1.46-2.31.92.04-.25,0-.57.17-.6.24-.04.91-.28,1.96-.54.11-.03.25.04.18.23h0ZM186.31,21.16c-.05-.32,2.24-1.09,2.32-.86.15.42-.47,1.55-1.25,1.84-.88.32-1.24.23-1.2.11.06-.23.18-.79.12-1.08h0ZM180.98,33.15c-1.06.65-1.63-.59-1.78-.81-.06-.1-.24-.37-.14-.83.07-.37.13-.87-.11-2.45-.11-.69,1.33-2.42,1.66-2.72.33-.32.82.16.86.67.06.96-.48,1.47-1.03,1.89-.68.51-.81,1.17-.68,1.34.05.07.36.07.49-.22.41-.87,1.58-1.31,1.76-1.77.29-.71.08-1.18.05-1.47-.03-.26.23-.32.42-.3.25.04.36.38.48.7.75,1.97-1.15,3.17-1.46,3.63-.14.22.3,1.82-.53,2.32v.02ZM182.57,25.5c-.57.39-1.39-.14-1.22-.37,1.05-1.5,2.46-2.54,3.02-2.89.9-.56,1-.6,1.04-.28.03.19.04,1.18-.69,1.97-.61.66-1.21.61-1.52.68-.21.04-.19.61-.63.9h0ZM177.51,32.24c-.26-.05-.36-.56-.31-.76.11-.45.81-1.37,1.05-1.69.06-.08.18,0,.2.09.15,1.07,0,2.58-.95,2.37h0ZM185.97,12.76c.95-.43,1.87-.44,1.96-.42.22.03-.48,1.26-1.72,1.8-1.28.55-2.24.65-2.34.6-.17-.08,1.08-1.51,2.1-1.96h0ZM164.08,33.32c-.38-.44-.73-.68-.77-.65-.11.07-.72,1.12-.93,2.35-1.19-2.29-1.86-4.6-1.96-7.34-.37-9.3,7.43-16.79,16.93-16.76,2.17,0,3.96.41,5.9,1.2-.44.54-.75,1.2-.96,1.75,0-.51-.14-.89-.11-1.21.03-.19-1.35.24-2.56,2.17-.28.45-.46.95-.57,1.4-.03-.73-.19-1.29-.25-1.28-.12.04-1.52.61-2.24,2.31-.12.3-.22.61-.29.9-.06-.52-.19-.86-.24-.86-.09,0-1.54.61-2.26,2.34-.17.4-.25.82-.3,1.2-.13-.61-.36-.98-.44-.89-.5.64-1.48.92-2.01,2.53-.12.38-.18.75-.18,1.1-.22-.54-.52-.86-.59-.84-.14.03-1.62,1.44-1.84,2.86-.09.56-.04,1.08.04,1.52-.28-.46-.66-.79-.82-1.26-.24.12-1.49,1.31-1.53,2.81-.02.59.07,1.14.19,1.6-.42-.75-1.01-1.11-1.08-1.07-.11.07-1.04,1.08-1.26,2.9-.05.43,0,.83.11,1.2h0ZM183.54,12.39c.75-.89,2.02-1.6,2.16-1.51.15.09-.21,1.46-1.03,2.26-.82.82-2.1,1.6-2.25,1.6-.15,0,.46-1.55,1.13-2.35ZM181.12,15.81c-.73.59-1.05.98-1.48,1.67-.14.24-.5-1.31.45-2.79.58-.9,1.73-1.72,1.7-1.61-.09.36.56,1.74-.68,2.73h0ZM178.45,17.78c-.89,1.32-.94.87-1.91,2.17-.05.07-.07-1.69.27-2.46.54-1.23,1.5-1.95,1.64-1.97.14-.03.49,1.53,0,2.27ZM175.54,20.43c-.46.8-.88.61-1.63,1.75-.09.12-.29-.94.17-2.37.35-1.1,1.44-1.79,1.55-1.82.18-.04.46,1.49-.09,2.45ZM172.83,23.24c-.46,1.02-.76,1.04-1.31,1.67-.1.11-.5-.96-.11-2.32.32-1.08,1.03-1.48,1.39-1.84.14-.14.52,1.4.03,2.47h0ZM170.63,24.98c0,.31-.04.48-.12.79-.33,1.14-1,1.62-1.37,2.14-.15-.33-.41-.82-.42-1.54,0-1.38.83-2.55,1.36-2.93.2,0,.55.83.55,1.54h0ZM168.38,28.34c-.03,1.6-1.03,2.54-1.33,2.84-.18-.32-.55-1.14-.58-1.99-.05-1.66.63-2.24.93-2.56.14.47.99.85.98,1.71h0ZM165.21,29.99c.46.24,1.02.9,1.07,2.15.05,1.25-.84,2.31-1.19,2.47-.25-.96-.71-1.16-.7-2.1,0-1.03.53-2.17.82-2.53h0ZM167.12,33.29c1.2-.53,2.52-.44,2.57-.39.05.05-.39,1.53-1.55,2.16s-2.49.68-2.6.53c-.07-.08.39-1.78,1.59-2.3h0ZM167.03,32.4c.08-.39.79-1.72,1.86-2.2h0c1.08-.48,2.32-.45,2.46-.39s-.45,1.46-1.53,1.98c-1.21.58-1.69.24-2.8.6h0ZM168.84,29.31c.05-.12.93-1.69,1.96-2.17,1.02-.47,2.25-.38,2.33-.35.09.03-.46,1.42-1.63,2-1.16.57-2.7.65-2.66.53ZM171.18,26.17c-.09-.06,1.16-1.69,2.19-2.17.91-.42,2.1-.33,2.2-.26s-.48,1.44-1.68,1.96c-1.15.5-2.62.53-2.71.47h0ZM173.99,23.06c-.07-.04.88-1.65,1.95-2.06,1.02-.39,2.03-.04,2.33-.02.25.02-.35,1.18-1.75,1.7-1.17.43-2.36.46-2.53.38ZM177.14,20.07c.02-.08,1.06-1.54,2.14-1.91,1.03-.35,2.27-.11,2.4-.06s-.73,1.33-2.03,1.73c-1.18.35-2.53.32-2.51.25ZM180.33,17.49c-.14-.1,1.12-1.5,2.15-1.89,1-.38,2.09-.31,2.17-.26.09.05-.66,1.27-1.87,1.76-1.14.46-2.32.49-2.46.39h0ZM162.89,46.19c-5.68-4.53-9.09-11.36-9.09-18.49,0-12.94,10.53-23.48,23.48-23.48,3.78,0,7.57.95,10.89,2.67.07.04.08.12.02.18-.97.85-2.33,2.53-2.67,2.99-2.59-1.21-5.35-1.83-8.23-1.83-10.73,0-19.46,8.73-19.46,19.46,0,4.79,1.62,9.16,4.68,12.66-.18.4-.49,1.3-.49,2.48,0,.97.18,2.1.87,3.34h0ZM162.93,39.66h0c-2.82-3.32-4.31-7.45-4.31-11.95,0-10.3,8.38-18.69,18.69-18.69,2.72,0,5.33.57,7.78,1.69-.32.15-.69.37-1.07.68-2.15-.91-4.31-1.34-6.7-1.34-9.73,0-17.66,7.92-17.66,17.65,0,4.23,1.32,7.94,3.9,11.05-.15.23-.36.54-.6.91h-.02ZM163.86,38.19c-.34-.32-1.08-1.14-1.15-2.19v-.15c0-1.13.5-2.24.62-2.37s1.4.87,1.42,2.3c.02,1.24-.55,1.95-.89,2.43v-.02ZM165.96,36.3c1.02-.48,2.53-.37,2.45-.3s-.48,1.53-1.62,2.11c-1.14.57-1.89.42-2.31.34.61-.68.48-1.67,1.49-2.15h0ZM167.33,48.5c-.18-.69-.11-1.65.13-1.9.46-.22,1.29-.31,1.31-.04.03.42-.29,1.43.08,2.68-.08.2-1.22.11-1.51-.74h0ZM167.41,45.6c-.09-.52.41-1.03.4-2.16,0-1.39-1.74-3.31-2.9-4.54.54,0,1.26-.13,2.07-.5,1.74-.81,2.08-2.65,2.12-2.72.03-.04-.39-.11-.98-.12.06-.04.13-.06.19-.1,1.7-.91,2.14-2.88,2.06-2.92-.04-.02-.46-.09-1.04-.07.17-.05.33-.11.52-.18,1.8-.71,2.3-2.71,2.24-2.78-.03-.03-.39-.1-.91-.11.16-.06.32-.13.49-.22,1.64-.82,2.21-2.65,2.12-2.71-.04-.03-.37-.09-.85-.1.37-.08.76-.2,1.18-.39,1.75-.77,2.32-2.45,2.24-2.53-.04-.03-.33-.11-.78-.15.35-.08.74-.18,1.14-.32,1.74-.6,2.44-2.25,2.33-2.26-.24-.02-.56-.13-.97-.21.47-.03,1.03-.11,1.72-.35,1.88-.63,2.54-1.76,2.58-2.25,0-.04-.23-.13-.59-.21.43-.08.86-.18,1.22-.33,1.75-.71,2.48-2.43,2.54-2.58.32-.11.66-.24,1.02-.39.18-.08.35-.17.5-.26.09.06.22.17.43.29.26.17.36.21.23.32-5.96,5.09-10.44,11.5-12.38,14.62-.05.09-.16.07-.32.06-2.09-.14-3.27,2.35-2.34,4.68-.12.47-1.11,1.39-1.18,1.46s-.27.36.06.32c.49-.04,1.11-.82,1.41-1.18.12.16.59.53.36.75-1.77,1.75-3.53,2.68-3.67,2.74-.67.32,1.1.55,4.13-2.18.18-.16.39.63.66.97-.52,1.71.76,5.02.56,6.06-.04.18-.14.69-.75.71-3,.06-3.29-.08-4.81.38-.71.21-.53.68,0,.53.59-.16,1.2-.39,4.44-.19.79.05,1.7-.16,1.7-1.5,0-1.21-.96-4.83-.63-5.32.43.32.75.33.9.37-.04,1.18,1.86,4.99,1.01,7.09-.32.78-1.69.72-4.05.49-4.02-.39-5.32.47-5.4,0h0ZM176.63,48.2c-1.56.54-2.17-1.29-1.92-1.67.16-.24,1.14.27,1.91-.23.59-.38.92,1.6,0,1.9h0ZM169.54,49.34c-.22-.96-.31-2.64.1-3.02.08-.07,1.28-.25,1.26.03-.1,1.16-.56,2.45.32,3.73.32.48-1.39.55-1.67-.74ZM172.52,50.44c-.42-.11-1.58-1.95-.63-4.15.1-.24,1.54-.09,1.79-.02.25.07-.2,1.8,1.79,2.57.2.08,0,2.32-2.94,1.6h0ZM184.94,44.3c-.68,2.32-1.01,3.25,0,5.77.13.33.24.59-.06.53-2.03-.35-2.46-.68-8.84-.14-.46.04.15-.89.08-1.52.58-.08,1.51-.34,1.71-1.29.24-1.15-.56-1.99-.47-2.16.9-1.76-.06-3.72-.82-6.99-.07-.31.11-.44.24-.3,4.1,4.43,6.71,5.31,8.11,5.74.14.04.11.2.06.35ZM195.41,32.2c-.86.75-2.17.82-2.7,1.31-.28.25-.4.65-.11,1.36.18.41.29.46-.3.61-.96.25-1.09,1.51-2.3,1.28-.48-.1-.14.22.04.24.69.07.97-.13,1.21-.36.25-.23.57-.64.94-.78.39-.15.77-.14.78.15,0,.22-.48.57-.68.67.25.13,1.01.52.36.96-.51.34-1.2-.13-1.31-.19-.15-.09-.44-.04-.34.07.38.46,1.39.34,1.2.58-.93,1.25-.18,1.98-.46,3.24-.29,1.27-2.03,1.97-3.37,2.21-4.56.82-9-3.06-11.6-5.98.24-.55.21-1.28-.04-1.03-.23.25-.18.65-.73.79-1.04.26-1.5-1.55-1.82-1.87-1.27-1.25-1.77-3.01-1.02-4.54.76-1.55,2.36-1.25,3-.3.79,1.17.42,1.83.88,2.18.63.49,1.26.05,1.44,0,.48-.13.45,1.14,2.09,1.08,1.76-.06,1.56-2.81,1.82-3.05,2.26-2.21,1.1-4.17.69-4.63-.11-.12.25-.93.39-.96,1.33-.29,2.08-1.14,2.48-2.04,0,0,2.21-.04,2.99-1.63.21-.42.86.41,2.33-.75.17-.13.32-.07.39.09.95,2.32,1.34,2.96,1.27,4.15-.05.86,2.3,5.64,2.47,6.05.19.46.22.91,0,1.1h0Z" style="fill: #1d1d1b; stroke-width: 0px;"/>
            <path d="M190.1,23.75c-1.28.04-2.78,1.62-3.26,1.84-.51.23-.33.38-.04.26.64-.24,1.55-1.21,2.81-1.67.99-.36.93.46,1.31.41.18-.02-.08-.88-.82-.85h0Z" style="fill: #1d1d1b; stroke-width: 0px;"/>
            <path d="M190.39,25c-.11.03.11.57-.45.61-1.21.07-2.17,1.22-2.9,1.56s-.89.34-1,.37c-.1.03-.06.15.02.17,3.08.41,4.26.3,4.29.18.05-.21-.18-.32-.12-.46.11-.34.18-.99.04-1.44-.05-.21.46-.07.46-.35,0-.15-.16-.68-.33-.64h0ZM189.92,27.43c-.06.24-1.43.13-2.18.06-.18-.02-.47-.04.1-.39.45-.27,1.07-.72,1.88-.88.07,0,.19,0,.23.16.08.38.04.79-.02,1.03h0Z" style="fill: #1d1d1b; stroke-width: 0px;"/>
            <path d="M193.95,31.82c-.24,0-1.18.43-1.54.66-.2.13-1.17.73-1.1-.22.03-.33.24-1.15.24-1.37,0-.34-.28-.2-.29,0,0,.47-.11.83-.2,1.39-.08.47.32,1.06.96.72.53-.28,1.25-.77,1.89-.89.17-.04.19-.27.04-.28Z" style="fill: #1d1d1b; stroke-width: 0px;"/>
            <path d="M176.11,35.18c-.18-.07-.13.31-.38.26-.32-.05-.05-.34-.47-.79-.21-.22-.74-.32-1.12-.94-.61-.98-.09-3.17.81-2.86.5.18.41,1.33.26,2.12-.09.48.66.72.73.55.11-.28-.28-.25-.37-.52-.14-.39.92-1.99-.46-2.46-1.01-.33-1.67.94-1.55,2.34.11,1.18.89,1.67,1.34,1.84.61.23.15,1.06.97,1.06.36,0,.44-.57.25-.64v.02Z" style="fill: #1d1d1b; stroke-width: 0px;"/>
            <path d="M184.2,8.86s.09,0,.12-.04l1.71-2.17c.04-.05.03-.14-.04-.17-.1-.04-.19-.08-.29-.11-.04-.02-.1,0-.12.04l-1.72,2.17c-.04.06-.02.14.05.17.1.04.19.07.3.11h0Z" style="fill: #1d1d1b; stroke-width: 0px;"/>
            <path d="M181.03,7.98c.1.02.19.04.3.06.05,0,.11-.02.12-.06l1-2.48c.03-.06,0-.13-.08-.14-.11-.03-.22-.04-.33-.07-.03,0-.06,0-.07.04-.12.32-.82,2.04-1.02,2.52-.03.06.02.13.08.14h0Z" style="fill: #1d1d1b; stroke-width: 0px;"/>
            <path d="M177.5,7.63h.3c.05,0,.11-.04.11-.1l.25-2.63c0-.06-.04-.11-.11-.11h-.3c-.05,0-.11.04-.11.1l-.25,2.63c0,.06.04.11.11.11Z" style="fill: #1d1d1b; stroke-width: 0px;"/>
            <path d="M174.07,7.89c.1-.02.19-.04.3-.04.06,0,.11-.07.09-.12l-.5-2.6c0-.05-.06-.1-.12-.09-.1.02-.2.03-.3.04-.06,0-.1.07-.09.12l.5,2.59c0,.05.06.1.12.09h0Z" style="fill: #1d1d1b; stroke-width: 0px;"/>
            <path d="M170.57,8.69s.08.07.13.05c.1-.04.19-.06.28-.1.06-.02.09-.09.06-.15l-1.18-2.39c-.03-.05-.08-.07-.13-.05-.1.04-.19.07-.28.11-.06.02-.09.09-.06.15l1.18,2.38Z" style="fill: #1d1d1b; stroke-width: 0px;"/>
            <path d="M167.3,10.2s.09.04.13.03c.09-.05.18-.1.26-.15.06-.04.08-.11.03-.17l-1.77-2.03s-.09-.04-.13-.03c-.09.05-.18.11-.26.16-.06.04-.07.11-.03.17l1.77,2.02Z" style="fill: #1d1d1b; stroke-width: 0px;"/>
            <path d="M164.26,12.35s.1.03.13,0c.08-.07.16-.13.24-.2.05-.04.05-.13,0-.17l-2.24-1.56s-.1-.03-.13,0c-.08.07-.16.14-.23.2-.05.04-.04.13,0,.17l2.24,1.55h0Z" style="fill: #1d1d1b; stroke-width: 0px;"/>
            <path d="M161.61,15.07s.1,0,.12-.04c.06-.08.13-.16.2-.24.04-.05.03-.14-.04-.17l-2.58-1.01s-.1,0-.12.04c-.06.08-.12.17-.19.25-.04.05-.02.14.04.17l2.57,1h0Z" style="fill: #1d1d1b; stroke-width: 0px;"/>
            <path d="M156.75,17.9l2.76.39s.09-.02.11-.05c.05-.1.1-.18.15-.28.04-.07,0-.15-.08-.16l-2.78-.39s-.09.02-.11.06c-.04.1-.1.18-.14.28-.04.06,0,.14.08.15h.02Z" style="fill: #1d1d1b; stroke-width: 0px;"/>
            <path d="M155.23,22.09l2.82-.27s.08-.04.09-.08c.04-.11.06-.2.1-.31.03-.07-.04-.15-.11-.14l-2.83.27s-.08.04-.1.08c-.03.11-.05.21-.08.31-.02.07.04.14.11.13h0Z" style="fill: #1d1d1b; stroke-width: 0px;"/>
            <path d="M157.37,25.43c0-.11.03-.22.04-.32,0-.08-.06-.14-.14-.11l-2.74.96s-.07.05-.07.1c0,.11-.02.22-.02.32,0,.08.07.13.14.11l2.73-.95s.07-.04.07-.09h0Z" style="fill: #1d1d1b; stroke-width: 0px;"/>
            <path d="M157.3,29.18c0-.11-.02-.23-.03-.34,0-.08-.1-.13-.17-.09l-2.49,1.63s-.05.06-.04.11c.02.11.03.22.04.32,0,.08.1.11.17.07l2.46-1.62s.05-.06.04-.1v.02Z" style="fill: #1d1d1b; stroke-width: 0px;"/>
            <path d="M157.92,32.94c-.03-.11-.06-.23-.09-.34-.02-.09-.12-.11-.18-.04l-2.03,2.23s-.04.07-.03.11c.04.11.07.21.11.32.03.08.12.1.18.04l2-2.2s.04-.06.03-.1h0Z" style="fill: #1d1d1b; stroke-width: 0px;"/>
            <path d="M158.96,36.26l-1.43,2.72s-.02.07,0,.11c.06.11.12.2.18.31.04.07.15.07.18,0l1.41-2.68s.02-.07,0-.1c-.05-.11-.11-.22-.17-.33-.04-.08-.15-.08-.19,0l.02-.02Z" style="fill: #1d1d1b; stroke-width: 0px;"/>
            <path d="M160.96,39.31c-.05-.07-.17-.05-.19.04l-.76,3.15s0,.07.03.1c.08.1.16.18.24.27.06.06.17.04.18-.04l.75-3.11s0-.06-.02-.09c-.08-.11-.16-.2-.23-.31h0Z" style="fill: #1d1d1b; stroke-width: 0px;"/>
          </g>
        </g>
        <g id="MPG_MPI_Trennlinie_Parting_Line" data-name="MPG MPI Trennlinie Parting Line">
          <line x1="140.22" y1=".07" x2="140.22" y2="55.35" style="fill: none; stroke: #1d1d1b; stroke-miterlimit: 10; stroke-width: .31px;"/>
        </g>
        <g id="Gebäude">
          <g>
            <line x1="106.81" y1="55.1" x2="106.87" y2="11.65" style="fill: none; stroke: #1d1d1b; stroke-miterlimit: 10; stroke-width: .53px;"/>
            <line x1="125.92" y1="55.23" x2="125.99" y2="15.02" style="fill: none; stroke: #1d1d1b; stroke-miterlimit: 10; stroke-width: .53px;"/>
            <line x1="104.37" y1="9.13" x2="130.42" y2="14.16" style="fill: none; stroke: #1d1d1b; stroke-linecap: round; stroke-miterlimit: 10; stroke-width: .53px;"/>
            <line x1="104.37" y1=".27" x2="130.42" y2="6.36" style="fill: none; stroke: #1d1d1b; stroke-linecap: round; stroke-miterlimit: 10; stroke-width: .53px;"/>
            <g>
              <path d="M125.99,15.07l-19.12-3.43s-23.21,18.26-62.37,25.06" style="fill: none; stroke: #1d1d1b; stroke-linecap: round; stroke-miterlimit: 10; stroke-width: .53px;"/>
              <line x1="130.42" y1="14.16" x2="126.05" y2="16.28" style="fill: none; stroke: #1d1d1b; stroke-miterlimit: 10; stroke-width: .53px;"/>
              <line x1="130.25" y1="6.38" x2="130.25" y2="14.18" style="fill: none; stroke: #1d1d1b; stroke-miterlimit: 10; stroke-width: .88px;"/>
              <line x1="126.59" y1="5.43" x2="126.59" y2="13.36" style="fill: none; stroke: #1d1d1b; stroke-miterlimit: 10; stroke-width: .53px;"/>
              <line x1="122.61" y1="4.5" x2="122.61" y2="12.58" style="fill: none; stroke: #1d1d1b; stroke-miterlimit: 10; stroke-width: .53px;"/>
              <line x1="118.26" y1="3.58" x2="118.26" y2="11.65" style="fill: none; stroke: #1d1d1b; stroke-miterlimit: 10; stroke-width: .53px;"/>
              <line x1="113.49" y1="2.39" x2="113.49" y2="10.85" style="fill: none; stroke: #1d1d1b; stroke-miterlimit: 10; stroke-width: .53px;"/>
              <line x1="108.72" y1="1.32" x2="108.72" y2="9.99" style="fill: none; stroke: #1d1d1b; stroke-miterlimit: 10; stroke-width: .53px;"/>
              <path d="M104.37,9.13s-24.67,20.3-62.11,26.52l.07-4.5C80.96,23.48,104.37.26,104.37.26v8.87" style="fill: none; stroke: #1d1d1b; stroke-linecap: round; stroke-linejoin: round; stroke-width: .53px;"/>
              <line x1="44.5" y1="36.71" x2="44.5" y2="38.44" style="fill: none; stroke: #1d1d1b; stroke-linecap: round; stroke-linejoin: round; stroke-width: .53px;"/>
              <path d="M44.5,46.5v7.41q50.92.66,62.37,1.12" style="fill: none; stroke: #1d1d1b; stroke-miterlimit: 10; stroke-width: .53px;"/>
              <line x1="42.32" y1="35.77" x2="44.5" y2="36.58" style="fill: none; stroke: #1d1d1b; stroke-linecap: round; stroke-miterlimit: 10; stroke-width: .53px;"/>
              <line x1="106.87" y1="55.04" x2="126.12" y2="55.04" style="fill: none; stroke: #1d1d1b; stroke-miterlimit: 10; stroke-width: .53px;"/>
              <path d="M102.11,36.78h-3.31s-27.19,8.27-54.83,9.86v-7.94c33.33-5.29,54.7-18.45,54.7-18.45l3.44.53v16h0Z" style="fill: none; stroke: #1d1d1b; stroke-linejoin: round; stroke-width: .53px;"/>
              <path d="M98.67,28.38s-23.08,11.3-54.7,14.15" style="fill: none; stroke: #1d1d1b; stroke-miterlimit: 10; stroke-width: .53px;"/>
              <line x1="98.67" y1="20.24" x2="98.67" y2="36.78" style="fill: none; stroke: #1d1d1b; stroke-miterlimit: 10; stroke-width: .53px;"/>
            </g>
            <line x1="96.56" y1="6.81" x2="96.56" y2="54.84" style="fill: none; stroke: #1d1d1b; stroke-miterlimit: 10; stroke-width: .2px;"/>
            <line x1="95.63" y1="7.74" x2="95.63" y2="54.7" style="fill: none; stroke: #1d1d1b; stroke-miterlimit: 10; stroke-width: .2px;"/>
            <line x1="90.47" y1="11.18" x2="90.47" y2="54.7" style="fill: none; stroke: #1d1d1b; stroke-miterlimit: 10; stroke-width: .2px;"/>
            <line x1="89.54" y1="11.85" x2="89.54" y2="54.7" style="fill: none; stroke: #1d1d1b; stroke-miterlimit: 10; stroke-width: .2px;"/>
            <line x1="85.05" y1="14.62" x2="85.05" y2="54.57" style="fill: none; stroke: #1d1d1b; stroke-miterlimit: 10; stroke-width: .2px;"/>
            <line x1="84.13" y1="15.15" x2="84.13" y2="54.57" style="fill: none; stroke: #1d1d1b; stroke-miterlimit: 10; stroke-width: .2px;"/>
            <line x1="80.42" y1="17.27" x2="80.42" y2="54.44" style="fill: none; stroke: #1d1d1b; stroke-miterlimit: 10; stroke-width: .2px;"/>
            <line x1="79.63" y1="17.79" x2="79.63" y2="54.44" style="fill: none; stroke: #1d1d1b; stroke-miterlimit: 10; stroke-width: .2px;"/>
            <line x1="76.19" y1="19.52" x2="76.19" y2="54.44" style="fill: none; stroke: #1d1d1b; stroke-miterlimit: 10; stroke-width: .2px;"/>
            <line x1="75.39" y1="19.92" x2="75.39" y2="54.44" style="fill: none; stroke: #1d1d1b; stroke-miterlimit: 10; stroke-width: .2px;"/>
            <line x1="71.95" y1="21.37" x2="71.95" y2="54.37" style="fill: none; stroke: #1d1d1b; stroke-miterlimit: 10; stroke-width: .2px;"/>
            <line x1="71.43" y1="21.9" x2="71.43" y2="54.37" style="fill: none; stroke: #1d1d1b; stroke-miterlimit: 10; stroke-width: .2px;"/>
            <line x1="68.38" y1="22.96" x2="68.38" y2="54.37" style="fill: none; stroke: #1d1d1b; stroke-miterlimit: 10; stroke-width: .2px;"/>
            <line x1="67.85" y1="23.35" x2="67.85" y2="54.37" style="fill: none; stroke: #1d1d1b; stroke-miterlimit: 10; stroke-width: .2px;"/>
            <line x1="64.67" y1="24.68" x2="64.67" y2="54.24" style="fill: none; stroke: #1d1d1b; stroke-miterlimit: 10; stroke-width: .2px;"/>
            <line x1="64.15" y1="24.94" x2="64.15" y2="54.24" style="fill: none; stroke: #1d1d1b; stroke-miterlimit: 10; stroke-width: .2px;"/>
            <line x1="61.24" y1="25.73" x2="61.24" y2="54.24" style="fill: none; stroke: #1d1d1b; stroke-miterlimit: 10; stroke-width: .2px;"/>
            <line x1="60.84" y1="26.13" x2="60.84" y2="54.24" style="fill: none; stroke: #1d1d1b; stroke-miterlimit: 10; stroke-width: .2px;"/>
            <line x1="57.93" y1="27.19" x2="57.93" y2="54.11" style="fill: none; stroke: #1d1d1b; stroke-miterlimit: 10; stroke-width: .2px;"/>
            <line x1="57.54" y1="27.05" x2="57.54" y2="54.24" style="fill: none; stroke: #1d1d1b; stroke-miterlimit: 10; stroke-width: .2px;"/>
            <line x1="54.49" y1="27.98" x2="54.49" y2="54.11" style="fill: none; stroke: #1d1d1b; stroke-miterlimit: 10; stroke-width: .2px;"/>
            <line x1="54.1" y1="28.25" x2="54.1" y2="54.11" style="fill: none; stroke: #1d1d1b; stroke-miterlimit: 10; stroke-width: .2px;"/>
            <line x1="51.45" y1="29.18" x2="51.45" y2="54.11" style="fill: none; stroke: #1d1d1b; stroke-miterlimit: 10; stroke-width: .2px;"/>
            <line x1="51.06" y1="29.18" x2="51.06" y2="54.11" style="fill: none; stroke: #1d1d1b; stroke-miterlimit: 10; stroke-width: .2px;"/>
            <line x1="48.54" y1="29.83" x2="48.54" y2="53.84" style="fill: none; stroke: #1d1d1b; stroke-miterlimit: 10; stroke-width: .2px;"/>
            <line x1="48.14" y1="29.83" x2="48.14" y2="53.98" style="fill: none; stroke: #1d1d1b; stroke-miterlimit: 10; stroke-width: .2px;"/>
            <line x1="46.02" y1="30.36" x2="46.02" y2="53.98" style="fill: none; stroke: #1d1d1b; stroke-miterlimit: 10; stroke-width: .2px;"/>
            <line x1="45.63" y1="30.5" x2="45.63" y2="53.98" style="fill: none; stroke: #1d1d1b; stroke-miterlimit: 10; stroke-width: .2px;"/>
            <line x1="108" y1="11.85" x2="108" y2="55.1" style="fill: none; stroke: #1d1d1b; stroke-miterlimit: 10; stroke-width: .26px;"/>
            <line x1="112.17" y1="12.58" x2="112.1" y2="54.97" style="fill: none; stroke: #1d1d1b; stroke-miterlimit: 10; stroke-width: .26px;"/>
            <line x1="116.53" y1="13.36" x2="116.53" y2="54.91" style="fill: none; stroke: #1d1d1b; stroke-miterlimit: 10; stroke-width: .26px;"/>
            <line x1="120.5" y1="14.03" x2="120.5" y2="54.91" style="fill: none; stroke: #1d1d1b; stroke-miterlimit: 10; stroke-width: .26px;"/>
            <line x1="124.33" y1="14.62" x2="124.33" y2="54.84" style="fill: none; stroke: #1d1d1b; stroke-miterlimit: 10; stroke-width: .26px;"/>
            <g>
              <path d="M108.07,19.32v-.26l17.72,2.65.09.17s-.02.09-.06.08l-17.75-2.63h0Z" style="fill: none; stroke: #1d1d1b; stroke-miterlimit: 10; stroke-width: .26px;"/>
              <line x1="108.07" y1="17.6" x2="125.92" y2="20.24" style="fill: none; stroke: #1d1d1b; stroke-miterlimit: 10; stroke-width: .26px;"/>
              <line x1="108.07" y1="16.54" x2="125.79" y2="19.19" style="fill: none; stroke: #1d1d1b; stroke-miterlimit: 10; stroke-width: .26px;"/>
              <line x1="107.93" y1="24.08" x2="125.99" y2="26.53" style="fill: none; stroke: #1d1d1b; stroke-miterlimit: 10; stroke-width: .26px;"/>
              <line x1="108.07" y1="25.27" x2="126.05" y2="27.52" style="fill: none; stroke: #1d1d1b; stroke-miterlimit: 10; stroke-width: .26px;"/>
              <polygon points="125.92 28.97 125.92 28.71 108.07 26.6 108.07 26.86 125.92 28.97" style="fill: none; stroke: #1d1d1b; stroke-miterlimit: 10; stroke-width: .26px;"/>
              <line x1="108.07" y1="31.75" x2="126.05" y2="33.34" style="fill: none; stroke: #1d1d1b; stroke-miterlimit: 10; stroke-width: .26px;"/>
              <line x1="108.07" y1="32.95" x2="125.79" y2="34.55" style="fill: none; stroke: #1d1d1b; stroke-miterlimit: 10; stroke-width: .26px;"/>
              <polygon points="108.07 34.26 108.07 34 125.92 35.59 125.92 35.85 108.07 34.26" style="fill: none; stroke: #1d1d1b; stroke-miterlimit: 10; stroke-width: .26px;"/>
              <polyline points="125.92 40.55 125.92 40.09 108 38.93" style="fill: none; stroke: #1d1d1b; stroke-miterlimit: 10; stroke-width: .26px;"/>
              <line x1="125.79" y1="41.54" x2="108" y2="40.29" style="fill: none; stroke: #1d1d1b; stroke-miterlimit: 10; stroke-width: .26px;"/>
              <polygon points="125.92 42.6 108 41.54 108.07 41.8 125.92 42.87 125.92 42.6" style="fill: none; stroke: #1d1d1b; stroke-miterlimit: 10; stroke-width: .26px;"/>
              <line x1="125.92" y1="47.76" x2="107.93" y2="47.29" style="fill: none; stroke: #1d1d1b; stroke-miterlimit: 10; stroke-width: .26px;"/>
              <line x1="126.01" y1="46.69" x2="108.07" y2="46.1" style="fill: none; stroke: #1d1d1b; stroke-miterlimit: 10; stroke-width: .26px;"/>
              <polyline points="108 48.57 108.07 48.75 125.92 49.21 125.92 48.95 108 48.43" style="fill: none; stroke: #1d1d1b; stroke-miterlimit: 10; stroke-width: .26px;"/>
            </g>
            <g>
              <path d="M47.81,47.43c-.79.05-1.72.13-1.72.13" style="fill: none; stroke: #1d1d1b; stroke-linecap: round; stroke-linejoin: round; stroke-width: .26px;"/>
              <path d="M50.72,47.16c-.82.08-1.46.16-2.11.21" style="fill: none; stroke: #1d1d1b; stroke-linecap: round; stroke-linejoin: round; stroke-width: .26px;"/>
              <path d="M53.61,46.86c-.76.09-1.41.17-2.09.24" style="fill: none; stroke: #1d1d1b; stroke-linecap: round; stroke-linejoin: round; stroke-width: .26px;"/>
              <path d="M56.85,46.49c-.82.1-1.54.19-2.3.28" style="fill: none; stroke: #1d1d1b; stroke-linecap: round; stroke-linejoin: round; stroke-width: .26px;"/>
              <path d="M60.35,46.04c-.82.11-1.57.21-2.35.31" style="fill: none; stroke: #1d1d1b; stroke-linecap: round; stroke-linejoin: round; stroke-width: .26px;"/>
              <path d="M63.65,45.6c-.82.11-1.55.22-2.34.32" style="fill: none; stroke: #1d1d1b; stroke-linecap: round; stroke-linejoin: round; stroke-width: .26px;"/>
              <path d="M67.35,45.08c-.9.13-1.73.25-2.6.38" style="fill: none; stroke: #1d1d1b; stroke-linecap: round; stroke-linejoin: round; stroke-width: .26px;"/>
              <path d="M70.87,44.57c-.83.12-1.6.25-2.42.37" style="fill: none; stroke: #1d1d1b; stroke-linecap: round; stroke-linejoin: round; stroke-width: .26px;"/>
              <path d="M74.9,43.94c-.98.16-1.9.31-2.89.46" style="fill: none; stroke: #1d1d1b; stroke-linecap: round; stroke-linejoin: round; stroke-width: .26px;"/>
              <path d="M78.93,43.29c-.91.15-1.76.3-2.68.45" style="fill: none; stroke: #1d1d1b; stroke-linecap: round; stroke-linejoin: round; stroke-width: .26px;"/>
              <path d="M83.49,42.51c-1.01.18-1.97.36-3.01.53" style="fill: none; stroke: #1d1d1b; stroke-linecap: round; stroke-linejoin: round; stroke-width: .26px;"/>
              <path d="M89.01,41.48c-1.27.25-2.53.5-3.89.75" style="fill: none; stroke: #1d1d1b; stroke-linecap: round; stroke-linejoin: round; stroke-width: .26px;"/>
              <path d="M95.23,40.15c-1.45.34-2.97.69-4.69,1.04" style="fill: none; stroke: #1d1d1b; stroke-linecap: round; stroke-linejoin: round; stroke-width: .26px;"/>
              <path d="M96.62,42.44c1.64-.39,4.5-.84,4.5-.84v-2.91s-2.62.64-4.5,1.11" style="fill: none; stroke: #1d1d1b; stroke-linecap: round; stroke-linejoin: round; stroke-width: .26px;"/>
              <path d="M90.54,43.73c1.65-.31,3.17-.64,4.69-.97v-2.6" style="fill: none; stroke: #1d1d1b; stroke-linecap: round; stroke-linejoin: round; stroke-width: .26px;"/>
              <path d="M85.12,44.67c1.36-.22,2.62-.45,3.93-.68l-.04-2.52" style="fill: none; stroke: #1d1d1b; stroke-linecap: round; stroke-linejoin: round; stroke-width: .26px;"/>
              <path d="M80.49,45.37c1.03-.15,1.99-.3,3.01-.46v-2.41" style="fill: none; stroke: #1d1d1b; stroke-linecap: round; stroke-linejoin: round; stroke-width: .26px;"/>
              <path d="M76.25,45.94c.91-.11,1.76-.24,2.68-.37v-2.29" style="fill: none; stroke: #1d1d1b; stroke-linecap: round; stroke-linejoin: round; stroke-width: .26px;"/>
              <path d="M72.02,46.47c.98-.11,1.89-.24,2.89-.36v-2.17" style="fill: none; stroke: #1d1d1b; stroke-linecap: round; stroke-linejoin: round; stroke-width: .26px;"/>
              <path d="M68.45,46.87c.82-.09,1.58-.18,2.42-.28v-2.03" style="fill: none; stroke: #1d1d1b; stroke-linecap: round; stroke-linejoin: round; stroke-width: .26px;"/>
              <path d="M64.74,47.27c.88-.09,1.7-.18,2.6-.28v-1.91" style="fill: none; stroke: #1d1d1b; stroke-linecap: round; stroke-linejoin: round; stroke-width: .26px;"/>
              <path d="M61.31,47.61c.79-.08,1.53-.16,2.34-.24v-1.77" style="fill: none; stroke: #1d1d1b; stroke-linecap: round; stroke-linejoin: round; stroke-width: .26px;"/>
              <path d="M58,47.92c.78-.07,1.53-.14,2.35-.22v-1.65" style="fill: none; stroke: #1d1d1b; stroke-linecap: round; stroke-linejoin: round; stroke-width: .26px;"/>
              <path d="M54.55,48.21c.75-.06,1.47-.13,2.3-.2v-1.53" style="fill: none; stroke: #1d1d1b; stroke-linecap: round; stroke-linejoin: round; stroke-width: .26px;"/>
              <path d="M51.51,48.46c.68-.05,1.32-.11,2.09-.18v-1.42" style="fill: none; stroke: #1d1d1b; stroke-linecap: round; stroke-linejoin: round; stroke-width: .26px;"/>
              <path d="M48.61,48.68c.65-.04,1.29-.13,2.11-.19v-1.32" style="fill: none; stroke: #1d1d1b; stroke-linecap: round; stroke-linejoin: round; stroke-width: .26px;"/>
              <path d="M46.02,48.85c.38-.03.98-.07,1.79-.12v-1.3" style="fill: none; stroke: #1d1d1b; stroke-linejoin: round; stroke-width: .26px;"/>
              <path d="M47.75,49.87c-1.09.07-1.66.13-1.66.13" style="fill: none; stroke: #1d1d1b; stroke-linecap: round; stroke-linejoin: round; stroke-width: .26px;"/>
              <path d="M50.72,49.68c-.86.06-1.46.11-2.11.16" style="fill: none; stroke: #1d1d1b; stroke-linecap: round; stroke-linejoin: round; stroke-width: .26px;"/>
              <path d="M53.72,49.47c-.81.06-1.5.11-2.2.17" style="fill: none; stroke: #1d1d1b; stroke-linecap: round; stroke-linejoin: round; stroke-width: .26px;"/>
              <path d="M56.91,49.22c-.84.07-1.59.13-2.35.18" style="fill: none; stroke: #1d1d1b; stroke-linecap: round; stroke-linejoin: round; stroke-width: .26px;"/>
              <path d="M60.35,48.94c-.83.07-1.57.13-2.35.19" style="fill: none; stroke: #1d1d1b; stroke-linecap: round; stroke-linejoin: round; stroke-width: .26px;"/>
              <path d="M63.6,48.68c-.82.07-1.48.13-2.26.2" style="fill: none; stroke: #1d1d1b; stroke-linecap: round; stroke-linejoin: round; stroke-width: .26px;"/>
              <path d="M75.05,47.63c-1.03.11-2,.2-3.03.3" style="fill: none; stroke: #1d1d1b; stroke-linecap: round; stroke-linejoin: round; stroke-width: .26px;"/>
              <path d="M78.91,47.23c-.91.1-1.75.19-2.66.28" style="fill: none; stroke: #1d1d1b; stroke-linecap: round; stroke-linejoin: round; stroke-width: .26px;"/>
              <path d="M83.49,46.73c-1.02.11-1.98.23-3.01.34" style="fill: none; stroke: #1d1d1b; stroke-linecap: round; stroke-linejoin: round; stroke-width: .26px;"/>
              <path d="M88.61,46.12c-1.17.15-2.3.29-3.49.43" style="fill: none; stroke: #1d1d1b; stroke-linecap: round; stroke-linejoin: round; stroke-width: .26px;"/>
              <path d="M94.65,45.29c-1.35.2-2.67.39-4.11.58" style="fill: none; stroke: #1d1d1b; stroke-linecap: round; stroke-linejoin: round; stroke-width: .26px;"/>
              <path d="M96.62,47.84c1.59-.19,3.11-.39,4.69-.61v-3.04c-1.46.28-3,.55-4.69.82" style="fill: none; stroke: #1d1d1b; stroke-linecap: round; stroke-linejoin: round; stroke-width: .26px;"/>
              <path d="M90.54,48.52c1.39-.15,2.71-.3,4.11-.46v-2.76" style="fill: none; stroke: #1d1d1b; stroke-linecap: round; stroke-linejoin: round; stroke-width: .26px;"/>
              <path d="M85.12,49.05c1.18-.11,2.31-.22,3.49-.34v-2.59" style="fill: none; stroke: #1d1d1b; stroke-linecap: round; stroke-linejoin: round; stroke-width: .26px;"/>
              <path d="M80.49,49.45c1.02-.08,1.97-.17,3.01-.26v-2.46" style="fill: none; stroke: #1d1d1b; stroke-linecap: round; stroke-linejoin: round; stroke-width: .26px;"/>
              <path d="M76.25,49.78c.89-.07,1.74-.13,2.66-.21v-2.33" style="fill: none; stroke: #1d1d1b; stroke-linecap: round; stroke-linejoin: round; stroke-width: .26px;"/>
              <path d="M71.93,50.07c1.02-.07,2.06-.14,3.11-.21v-2.24" style="fill: none; stroke: #1d1d1b; stroke-linejoin: round; stroke-width: .26px;"/>
              <path d="M61.31,50.68c.76-.04,1.49-.08,2.3-.11v-1.89" style="fill: none; stroke: #1d1d1b; stroke-linecap: round; stroke-linejoin: round; stroke-width: .26px;"/>
              <path d="M58,50.83c.78-.04,1.52-.07,2.35-.11v-1.77" style="fill: none; stroke: #1d1d1b; stroke-linecap: round; stroke-linejoin: round; stroke-width: .26px;"/>
              <path d="M54.55,50.96c.76-.03,1.51-.06,2.35-.1v-1.65" style="fill: none; stroke: #1d1d1b; stroke-linecap: round; stroke-linejoin: round; stroke-width: .26px;"/>
              <path d="M51.53,51.07c.75-.03,1.31-.05,2.19-.08v-1.53" style="fill: none; stroke: #1d1d1b; stroke-linecap: round; stroke-linejoin: round; stroke-width: .26px;"/>
              <path d="M48.61,51.17c.65-.02,1.25-.02,2.11-.04v-1.46" style="fill: none; stroke: #1d1d1b; stroke-linecap: round; stroke-linejoin: round; stroke-width: .26px;"/>
              <polyline points="46.09 51.2 47.75 51.2 47.75 49.87" style="fill: none; stroke: #1d1d1b; stroke-linecap: round; stroke-linejoin: round; stroke-width: .26px;"/>
              <path d="M47.71,52.09c-1.1.03-1.69.04-1.69.04" style="fill: none; stroke: #1d1d1b; stroke-linejoin: round; stroke-width: .26px;"/>
              <path d="M50.68,52.02c-1.53.04-1.94.03-2.07.04" style="fill: none; stroke: #1d1d1b; stroke-linecap: round; stroke-linejoin: round; stroke-width: .26px;"/>
              <path d="M53.72,51.95c-.82.02-1.51.04-2.2.06" style="fill: none; stroke: #1d1d1b; stroke-linecap: round; stroke-linejoin: round; stroke-width: .26px;"/>
              <path d="M56.91,51.86c-.85.03-1.59.04-2.35.07" style="fill: none; stroke: #1d1d1b; stroke-linecap: round; stroke-linejoin: round; stroke-width: .26px;"/>
              <path d="M60.45,51.76c-.87.03-1.64.05-2.45.07" style="fill: none; stroke: #1d1d1b; stroke-linecap: round; stroke-linejoin: round; stroke-width: .26px;"/>
              <path d="M63.74,51.65c-.87.03-1.61.05-2.43.08" style="fill: none; stroke: #1d1d1b; stroke-linecap: round; stroke-linejoin: round; stroke-width: .26px;"/>
              <path d="M75.01,51.25c-1.04.04-1.98.11-2.99.15" style="fill: none; stroke: #1d1d1b; stroke-linecap: round; stroke-linejoin: round; stroke-width: .26px;"/>
              <path d="M78.91,51.08c-.91.04-1.76.08-2.66.11" style="fill: none; stroke: #1d1d1b; stroke-linecap: round; stroke-linejoin: round; stroke-width: .26px;"/>
              <path d="M83.49,50.75c-1.03.05-1.98.1-3.01.14" style="fill: none; stroke: #1d1d1b; stroke-linecap: round; stroke-linejoin: round; stroke-width: .26px;"/>
              <path d="M88.74,50.49c-1.24.06-2.4.12-3.63.18" style="fill: none; stroke: #1d1d1b; stroke-linecap: round; stroke-linejoin: round; stroke-width: .26px;"/>
              <path d="M94.65,50.16c-1.39.08-2.72.16-4.11.24" style="fill: none; stroke: #1d1d1b; stroke-linecap: round; stroke-linejoin: round; stroke-width: .26px;"/>
              <path d="M96.62,53.23c2.39-.04,3.38-.04,4.69-.04v-3.44c-1.56.11-3.04.2-4.69.31" style="fill: none; stroke: #1d1d1b; stroke-linecap: round; stroke-linejoin: round; stroke-width: .26px;"/>
              <path d="M90.54,53.2c1.51,0,2.84,0,4.11.02v-3.05" style="fill: none; stroke: #1d1d1b; stroke-linecap: round; stroke-linejoin: round; stroke-width: .26px;"/>
              <path d="M85.12,53.2h3.63v-2.71" style="fill: none; stroke: #1d1d1b; stroke-linecap: round; stroke-linejoin: round; stroke-width: .26px;"/>
              <path d="M80.49,53.2h3.01v-2.46" style="fill: none; stroke: #1d1d1b; stroke-linecap: round; stroke-linejoin: round; stroke-width: .26px;"/>
              <path d="M76.25,53.34h2.66v-2.24" style="fill: none; stroke: #1d1d1b; stroke-linecap: round; stroke-linejoin: round; stroke-width: .26px;"/>
              <path d="M72.02,53.38c1.32,0,2.05-.02,3.04,0l-.04-2.1" style="fill: none; stroke: #1d1d1b; stroke-linecap: round; stroke-linejoin: round; stroke-width: .26px;"/>
              <path d="M61.31,53.38h2.43v-1.72" style="fill: none; stroke: #1d1d1b; stroke-linecap: round; stroke-linejoin: round; stroke-width: .26px;"/>
              <path d="M58,53.4c.81,0,1.6,0,2.45,0v-1.62" style="fill: none; stroke: #1d1d1b; stroke-linecap: round; stroke-linejoin: round; stroke-width: .26px;"/>
              <path d="M54.55,53.41c.77,0,1.51,0,2.35,0v-1.53" style="fill: none; stroke: #1d1d1b; stroke-linecap: round; stroke-linejoin: round; stroke-width: .26px;"/>
              <path d="M51.51,53.42c.7,0,1.39,0,2.2,0v-1.46" style="fill: none; stroke: #1d1d1b; stroke-linecap: round; stroke-linejoin: round; stroke-width: .26px;"/>
              <path d="M48.61,53.43c.65,0,1.34,0,2.07,0v-1.4" style="fill: none; stroke: #1d1d1b; stroke-linecap: round; stroke-linejoin: round; stroke-width: .26px;"/>
              <path d="M46.09,53.46s.54-.02,1.62-.02v-1.35" style="fill: none; stroke: #1d1d1b; stroke-linecap: round; stroke-linejoin: round; stroke-width: .26px;"/>
            </g>
            <polyline points="64.74 48.56 70.83 48.02 70.83 54.37" style="fill: none; stroke: #1d1d1b; stroke-linecap: round; stroke-linejoin: round; stroke-width: .26px;"/>
          </g>
        </g>
        <g id="MPI_EN_Master_one-line" data-name="MPI EN Master one-line">
          <g id="MPI_EN_editable_Subline_one-line_Kopie" data-name="MPI EN editable Subline one-line Kopie">
            <g>
              <path d="M4.36,86.98H.67v3.7h-.67v-7.91h4.9v.56H.67v3.08h3.69v.56h0Z" style="fill: #1d1d1b; stroke-width: 0px;"/>
              <path d="M12.66,87.15c0,.73-.12,1.37-.38,1.92s-.61.97-1.08,1.27-1.01.45-1.62.45c-.92,0-1.67-.33-2.24-.99s-.85-1.55-.85-2.67v-.82c0-.72.13-1.36.39-1.91.25-.55.61-.98,1.09-1.28.46-.3,1.01-.45,1.61-.45s1.15.15,1.61.44.82.71,1.08,1.25.39,1.16.39,1.86v.95h0ZM12,86.29c0-.96-.22-1.7-.65-2.24-.43-.54-1.03-.81-1.77-.81s-1.32.27-1.75.82c-.44.54-.66,1.3-.66,2.27v.82c0,.94.22,1.68.65,2.23s1.03.82,1.77.82,1.35-.27,1.77-.82.63-1.3.63-2.26v-.83h0Z" style="fill: #1d1d1b; stroke-width: 0px;"/>
              <path d="M17.86,87.38h-2.3v3.3h-.68v-7.91h2.57c.84,0,1.5.2,1.97.61.47.41.71.98.71,1.72,0,.51-.15.96-.45,1.34s-.69.66-1.19.81l1.98,3.37v.07h-.71l-1.91-3.3h0ZM15.57,86.82h2.05c.56,0,1.02-.16,1.35-.48.34-.32.51-.73.51-1.24,0-.56-.18-.99-.53-1.3-.36-.31-.85-.46-1.49-.46h-1.89v3.48Z" style="fill: #1d1d1b; stroke-width: 0px;"/>
              <path d="M30.16,86.88h-3.7v3.23h4.25v.56h-4.92v-7.91h4.89v.56h-4.23v2.99h3.7v.56h0Z" style="fill: #1d1d1b; stroke-width: 0px;"/>
              <path d="M35.06,89.69l.04.17.05-.17,2.49-6.94h.74l-2.95,7.91h-.64l-2.95-7.91h.73l2.49,6.94h0Z" style="fill: #1d1d1b; stroke-width: 0px;"/>
              <path d="M45.87,87.15c0,.73-.12,1.37-.38,1.92s-.61.97-1.08,1.27c-.46.3-1.01.45-1.62.45-.92,0-1.67-.33-2.24-.99s-.85-1.55-.85-2.67v-.82c0-.72.13-1.36.39-1.91s.61-.98,1.09-1.28c.46-.3,1.01-.45,1.61-.45s1.15.15,1.61.44.82.71,1.08,1.25.39,1.16.39,1.86v.95h0ZM45.21,86.29c0-.96-.22-1.7-.65-2.24-.43-.54-1.03-.81-1.77-.81s-1.32.27-1.75.82c-.44.54-.66,1.3-.66,2.27v.82c0,.94.22,1.68.65,2.23s1.03.82,1.77.82,1.35-.27,1.77-.82c.42-.54.63-1.3.63-2.26v-.83h0Z" style="fill: #1d1d1b; stroke-width: 0px;"/>
              <path d="M48.78,90.11h3.91v.56h-4.58v-7.91h.68v7.35h0Z" style="fill: #1d1d1b; stroke-width: 0px;"/>
              <path d="M59.68,82.77v5.4c0,.53-.12,1-.35,1.39s-.56.7-.98.91-.9.32-1.46.32c-.83,0-1.5-.23-2-.68s-.76-1.09-.78-1.89v-5.45h.67v5.35c0,.67.19,1.18.57,1.55s.89.55,1.55.55,1.17-.18,1.54-.55.57-.89.57-1.54v-5.36h.68,0Z" style="fill: #1d1d1b; stroke-width: 0px;"/>
              <path d="M67.47,83.33h-2.71v7.35h-.67v-7.35h-2.71v-.56h6.09s0,.56,0,.56Z" style="fill: #1d1d1b; stroke-width: 0px;"/>
              <path d="M70.12,90.68h-.67v-7.91h.67v7.91Z" style="fill: #1d1d1b; stroke-width: 0px;"/>
              <path d="M78.67,87.15c0,.73-.12,1.37-.38,1.92s-.61.97-1.08,1.27c-.46.3-1.01.45-1.62.45-.92,0-1.67-.33-2.24-.99s-.85-1.55-.85-2.67v-.82c0-.72.13-1.36.39-1.91s.61-.98,1.09-1.28c.46-.3,1.01-.45,1.61-.45s1.15.15,1.61.44.82.71,1.08,1.25.39,1.16.39,1.86v.95h0ZM78,86.29c0-.96-.22-1.7-.65-2.24-.43-.54-1.03-.81-1.77-.81s-1.32.27-1.75.82c-.44.54-.66,1.3-.66,2.27v.82c0,.94.22,1.68.65,2.23s1.03.82,1.77.82,1.35-.27,1.77-.82c.42-.54.63-1.3.63-2.26v-.83h0Z" style="fill: #1d1d1b; stroke-width: 0px;"/>
              <path d="M86.81,90.68h-.67l-4.55-6.77v6.77h-.68v-7.91h.68l4.55,6.78v-6.78h.67v7.91Z" style="fill: #1d1d1b; stroke-width: 0px;"/>
              <path d="M93.75,88.45h-3.6l-.82,2.22h-.7l2.99-7.91h.64l2.99,7.91h-.69l-.82-2.22h0ZM90.36,87.89h3.17l-1.59-4.31-1.59,4.31Z" style="fill: #1d1d1b; stroke-width: 0px;"/>
              <path d="M99.93,87.38h-2.3v3.3h-.68v-7.91h2.57c.84,0,1.5.2,1.97.61.47.41.71.98.71,1.72,0,.51-.15.96-.45,1.34s-.69.66-1.19.81l1.98,3.37v.07h-.71l-1.91-3.3h0ZM97.63,86.82h2.05c.56,0,1.02-.16,1.35-.48.34-.32.51-.73.51-1.24,0-.56-.18-.99-.53-1.3-.36-.31-.85-.46-1.49-.46h-1.89v3.48Z" style="fill: #1d1d1b; stroke-width: 0px;"/>
              <path d="M106.65,87.08l2.42-4.31h.77l-2.86,4.94v2.98h-.67v-2.98l-2.85-4.94h.8l2.39,4.31h0Z" style="fill: #1d1d1b; stroke-width: 0px;"/>
              <path d="M119.09,88.45h-3.6l-.82,2.22h-.7l2.99-7.91h.64l2.99,7.91h-.69l-.82-2.22h0ZM115.7,87.89h3.17l-1.59-4.31-1.59,4.31Z" style="fill: #1d1d1b; stroke-width: 0px;"/>
              <path d="M128.21,90.68h-.67l-4.55-6.77v6.77h-.68v-7.91h.68l4.55,6.78v-6.78h.67v7.91Z" style="fill: #1d1d1b; stroke-width: 0px;"/>
              <path d="M135.99,83.33h-2.71v7.35h-.67v-7.35h-2.71v-.56h6.09v.56h0Z" style="fill: #1d1d1b; stroke-width: 0px;"/>
              <path d="M143.69,90.68h-.68v-3.8h-4.53v3.8h-.67v-7.91h.67v3.55h4.53v-3.55h.68v7.91Z" style="fill: #1d1d1b; stroke-width: 0px;"/>
              <path d="M149.21,87.38h-2.3v3.3h-.68v-7.91h2.57c.84,0,1.5.2,1.97.61.47.41.71.98.71,1.72,0,.51-.15.96-.45,1.34s-.69.66-1.19.81l1.98,3.37v.07h-.71l-1.91-3.3h0ZM146.91,86.82h2.05c.56,0,1.02-.16,1.35-.48.34-.32.51-.73.51-1.24,0-.56-.18-.99-.53-1.3-.36-.31-.85-.46-1.49-.46h-1.89v3.48Z" style="fill: #1d1d1b; stroke-width: 0px;"/>
              <path d="M159.73,87.15c0,.73-.12,1.37-.38,1.92s-.61.97-1.08,1.27-1.01.45-1.62.45c-.92,0-1.67-.33-2.24-.99s-.85-1.55-.85-2.67v-.82c0-.72.13-1.36.39-1.91.25-.55.61-.98,1.09-1.28.46-.3,1.01-.45,1.61-.45s1.15.15,1.61.44.82.71,1.08,1.25.39,1.16.39,1.86v.95h0ZM159.06,86.29c0-.96-.22-1.7-.65-2.24-.43-.54-1.03-.81-1.77-.81s-1.32.27-1.75.82c-.44.54-.66,1.3-.66,2.27v.82c0,.94.22,1.68.65,2.23s1.03.82,1.77.82,1.35-.27,1.77-.82c.42-.54.63-1.3.63-2.26v-.83h0Z" style="fill: #1d1d1b; stroke-width: 0px;"/>
              <path d="M162.63,87.45v3.22h-.67v-7.91h2.69c.82,0,1.47.21,1.95.63.47.42.72,1,.72,1.74s-.23,1.32-.68,1.72-1.12.61-1.99.61h-2.02ZM162.63,86.89h2.03c.65,0,1.14-.16,1.48-.46s.51-.74.51-1.29-.17-.98-.51-1.31c-.34-.32-.82-.49-1.45-.5h-2.07v3.56h0Z" style="fill: #1d1d1b; stroke-width: 0px;"/>
              <path d="M175.22,87.15c0,.73-.12,1.37-.38,1.92s-.61.97-1.08,1.27-1.01.45-1.62.45c-.92,0-1.67-.33-2.24-.99s-.85-1.55-.85-2.67v-.82c0-.72.13-1.36.39-1.91.25-.55.61-.98,1.09-1.28.46-.3,1.01-.45,1.61-.45s1.15.15,1.61.44.82.71,1.08,1.25.39,1.16.39,1.86v.95h0ZM174.56,86.29c0-.96-.22-1.7-.65-2.24-.43-.54-1.03-.81-1.77-.81s-1.32.27-1.75.82c-.44.54-.66,1.3-.66,2.27v.82c0,.94.22,1.68.65,2.23s1.03.82,1.77.82,1.35-.27,1.77-.82c.42-.54.63-1.3.63-2.26v-.83h0Z" style="fill: #1d1d1b; stroke-width: 0px;"/>
              <path d="M178.13,90.11h3.91v.56h-4.58v-7.91h.68v7.35h0Z" style="fill: #1d1d1b; stroke-width: 0px;"/>
              <path d="M189.38,87.15c0,.73-.12,1.37-.38,1.92s-.61.97-1.08,1.27-1.01.45-1.62.45c-.92,0-1.67-.33-2.24-.99s-.85-1.55-.85-2.67v-.82c0-.72.13-1.36.39-1.91.25-.55.61-.98,1.09-1.28.46-.3,1.01-.45,1.61-.45s1.15.15,1.61.44.82.71,1.08,1.25.39,1.16.39,1.86v.95h0ZM188.71,86.29c0-.96-.22-1.7-.65-2.24-.43-.54-1.03-.81-1.77-.81s-1.32.27-1.75.82c-.44.54-.66,1.3-.66,2.27v.82c0,.94.22,1.68.65,2.23s1.03.82,1.77.82,1.35-.27,1.77-.82c.42-.54.63-1.3.63-2.26v-.83h0Z" style="fill: #1d1d1b; stroke-width: 0px;"/>
              <path d="M197.32,89.74c-.23.33-.6.59-1.09.77s-1.05.28-1.66.28-1.17-.15-1.65-.45c-.48-.3-.86-.72-1.12-1.26s-.4-1.17-.4-1.87v-1c0-1.1.28-1.96.83-2.6s1.3-.96,2.24-.96c.82,0,1.47.21,1.96.62.5.41.79.98.89,1.72h-.67c-.1-.58-.33-1.03-.71-1.32s-.87-.45-1.47-.45c-.74,0-1.32.26-1.75.79s-.65,1.27-.65,2.23v.94c0,.61.11,1.13.31,1.6s.5.82.88,1.08c.39.25.82.38,1.32.38.58,0,1.07-.09,1.48-.27.27-.12.46-.26.6-.42v-2.04h-2.12v-.56h2.79v2.81-.02Z" style="fill: #1d1d1b; stroke-width: 0px;"/>
              <path d="M202.09,87.08l2.42-4.31h.77l-2.86,4.94v2.98h-.67v-2.98l-2.85-4.94h.8l2.39,4.31h0Z" style="fill: #1d1d1b; stroke-width: 0px;"/>
            </g>
          </g>
          <g id="MPI_EN_Lettering_one-line" data-name="MPI EN Lettering one-line">
            <g>
              <polygon points="26.97 76.86 26.92 76.86 24.27 69.16 21.52 69.16 21.52 79.6 23.62 79.6 23.62 72.46 23.66 72.45 26.24 79.6 27.66 79.6 30.25 72.47 30.29 72.47 30.29 79.6 32.38 79.6 32.38 69.16 29.65 69.16 26.97 76.86" style="fill: #1d1d1b; stroke-width: 0px;"/>
              <path d="M40.44,69.16h-2.14l-3.53,10.44h2.18l.7-2.25h3.39l.71,2.25h2.18l-3.51-10.44h0ZM38.18,75.72l1.16-3.68h.04l1.16,3.68h-2.36Z" style="fill: #1d1d1b; stroke-width: 0px;"/>
              <polygon points="54.25 79.6 50.97 74.34 54.06 69.16 51.63 69.16 49.67 72.87 47.74 69.16 45.31 69.16 48.42 74.34 45.23 79.6 47.68 79.6 49.7 75.84 51.71 79.6 54.25 79.6" style="fill: #1d1d1b; stroke-width: 0px;"/>
              <path d="M67.78,70.08c-.69-.61-1.63-.92-2.83-.92h-4v10.44h2.1v-3.79h1.9c1.2,0,2.14-.31,2.83-.91.68-.61,1.03-1.41,1.03-2.41s-.34-1.81-1.03-2.42h0ZM66.27,73.72c-.3.32-.75.47-1.32.47h-1.9v-3.43h1.9c.59,0,1.03.17,1.33.49s.45.75.45,1.25-.15.89-.46,1.22Z" style="fill: #1d1d1b; stroke-width: 0px;"/>
              <polygon points="76.98 78 73.14 78 73.14 69.16 71.04 69.16 71.04 79.6 76.98 79.6 76.98 78" style="fill: #1d1d1b; stroke-width: 0px;"/>
              <path d="M81.81,69.16l-3.53,10.44h2.18l.7-2.25h3.39l.71,2.25h2.18l-3.51-10.44h-2.14,0ZM81.7,75.72l1.16-3.68h.04l1.16,3.68h-2.36Z" style="fill: #1d1d1b; stroke-width: 0px;"/>
              <polygon points="91.74 72.57 91.78 72.56 95.99 79.6 98.09 79.6 98.09 69.16 95.99 69.16 95.99 76.19 95.95 76.2 91.74 69.16 89.64 69.16 89.64 79.6 91.74 79.6 91.74 72.57" style="fill: #1d1d1b; stroke-width: 0px;"/>
              <path d="M108.01,69.95c-.72-.62-1.71-.93-2.98-.93s-2.2.4-2.96,1.22c-.75.81-1.12,1.85-1.12,3.12v2.07c0,1.28.39,2.32,1.16,3.12s1.78,1.21,3.03,1.21,2.19-.32,2.89-.95,1.03-1.5,1.02-2.61l-.02-.04h-2.03c0,.68-.16,1.18-.46,1.51s-.77.49-1.4.49-1.18-.25-1.54-.76-.55-1.16-.55-1.96v-2.09c0-.8.18-1.45.53-1.96.35-.51.84-.75,1.46-.75.68,0,1.18.17,1.5.49.32.32.48.82.48,1.5h2.03l.02-.04c.02-1.13-.33-2-1.04-2.62h-.02Z" style="fill: #1d1d1b; stroke-width: 0px;"/>
              <polygon points="120 69.16 117.41 69.16 114.55 73.43 113.96 73.43 113.96 69.16 111.87 69.16 111.87 79.6 113.96 79.6 113.96 75.24 114.73 75.24 117.62 79.6 120.28 79.6 116.39 74.01 120 69.16" style="fill: #1d1d1b; stroke-width: 0px;"/>
              <path d="M129,79.62h-2.15v-10.42h2.15v10.42Z" style="fill: #1d1d1b; stroke-width: 0px;"/>
              <path d="M140.56,79.62h-2.15l-4.17-6.86v6.86h-2.15v-10.42h2.15l4.18,6.87v-6.87h2.14v10.42h0Z" style="fill: #1d1d1b; stroke-width: 0px;"/>
              <path d="M148.86,76.89c0-.4-.14-.72-.43-.93-.29-.22-.8-.45-1.54-.68-.75-.24-1.33-.47-1.76-.71-1.18-.64-1.77-1.5-1.77-2.59,0-.56.16-1.06.47-1.51.32-.44.77-.79,1.37-1.03s1.26-.37,2-.37,1.4.13,1.99.4c.58.27,1.03.65,1.36,1.14.32.49.48,1.05.48,1.67h-2.15c0-.47-.15-.85-.45-1.11-.3-.26-.72-.39-1.26-.39s-.93.11-1.22.33-.44.52-.44.88.17.62.51.85.84.44,1.51.64c1.22.37,2.11.82,2.67,1.37.56.54.83,1.22.83,2.03,0,.9-.34,1.6-1.03,2.12-.68.51-1.6.77-2.75.77-.8,0-1.53-.15-2.19-.44s-1.16-.69-1.51-1.2c-.34-.51-.52-1.1-.52-1.77h2.16c0,1.15.68,1.73,2.06,1.73.51,0,.91-.11,1.19-.31.29-.21.43-.5.43-.87v-.03Z" style="fill: #1d1d1b; stroke-width: 0px;"/>
              <path d="M160.89,70.94h-3.19v8.68h-2.15v-8.68h-3.15v-1.74h8.48v1.74h0Z" style="fill: #1d1d1b; stroke-width: 0px;"/>
              <path d="M165.13,79.62h-2.15v-10.42h2.15v10.42Z" style="fill: #1d1d1b; stroke-width: 0px;"/>
              <path d="M175.49,70.94h-3.19v8.68h-2.15v-8.68h-3.15v-1.74h8.48v1.74h0Z" style="fill: #1d1d1b; stroke-width: 0px;"/>
              <path d="M185.32,69.21v6.86c0,1.14-.36,2.04-1.07,2.7-.71.67-1.68.99-2.92.99s-2.18-.32-2.89-.96c-.72-.64-1.08-1.53-1.1-2.66v-6.94h2.15v6.88c0,.68.17,1.18.49,1.49s.78.46,1.36.46c1.21,0,1.82-.63,1.84-1.9v-6.94h2.16l-.02.02Z" style="fill: #1d1d1b; stroke-width: 0px;"/>
              <path d="M195.66,70.94h-3.19v8.68h-2.15v-8.68h-3.15v-1.74h8.48v1.74h0Z" style="fill: #1d1d1b; stroke-width: 0px;"/>
              <path d="M203.88,75.11h-4.12v2.79h4.83v1.73h-6.98v-10.42h6.97v1.74h-4.82v2.48h4.12v1.68h0Z" style="fill: #1d1d1b; stroke-width: 0px;"/>
            </g>
          </g>
        </g>
      </g>
      <g id="trennlinie">
        <line x1="255.02" y1=".27" x2="255.02" y2="90.79" style="fill: none; stroke: #1d1d1b; stroke-miterlimit: 10; stroke-width: .31px;"/>
      </g>
    </g>
  </g>
</svg>