<?xml version="1.0" encoding="UTF-8"?>
<svg id="Layer_1" data-name="Layer 1" xmlns="http://www.w3.org/2000/svg" version="1.1" viewBox="0 0 216 78">
  <defs>
    <style>
      .cls-1, .cls-2, .cls-3 {
        stroke-width: 0px;
      }

      .cls-1, .cls-3 {
        fill: #1a171b;
      }

      .cls-2 {
        fill: #000;
      }

      .cls-3 {
        fill-rule: evenodd;
      }
    </style>
  </defs>
  <path class="cls-2" d="M8.4,41.7H2.2v19.3h19.3v-3.1h-13.1v-10M46.6,61v-3.1h-15.3v-5.2h9.1v-3.1h-9.1v-4.8h15.3v-3.1h-21.6v19.3s21.6,0,21.6,0ZM93.6,47.6c0,.9-.4,1.7-.9,2.2-.5.4-1.4.6-2.9.6h-5.9v-5.6h5.8c.6,0,1.4,0,1.8,0,.5,0,1,.3,1.4.7s.7,1.2.7,1.9M100.4,47.5c0-2.6-1.6-4.7-3.9-5.4-1.1-.3-2.2-.4-3.8-.4h-15v19.3h6.2v-7.5h7.7c3.1,0,4.9-.4,6.4-1.3,1.5-1,2.4-2.7,2.4-4.7M126.7,61v-19.3h-6.2v7.9h-10.7v-7.9h-6.2v19.3h6.2v-8.1h10.7v8.1h6.2ZM145,52h-7.1l3.6-6.6,3.5,6.6h0ZM157.2,61l-10.4-19.3h-6.8l-7.5,13.6c-.3.5-3.2,5.7-3.2,5.7h3.6l3.5-6.2h10.1l3.3,6.2M182.5,41.7h-3.2v13.1l-11.9-13.1h-7.1v19.3h3.2v-13.3l12.2,13.3h6.8v-19.3ZM201,52h-7.1l3.6-6.6,3.5,6.6ZM213.2,61l-10.4-19.3h-6.8l-7.5,13.5c-.3.5-3.2,5.7-3.2,5.7h3.7l3.5-6.2h10.1l3.3,6.2M70.6,41.7h-2.7v11.6c0,.8,0,1.5-.3,2-.2.8-.6,1.6-1.2,2-.8.7-2,1.1-3.2,1.1-1.9,0-3.5-.6-4.5-1.6s-.8-1.2-1-1.9c-.2-.8-.2-1.6-.2-3v-10.3h-6.6v12c0,2.5.5,3.9,1.8,5.3,1.3,1.4,3,2.1,5.6,2.5h.3c1,0,2,.2,2.9.2s.2,0,.3,0h.3c4.4,0,7.3-1,8.9-3,1.2-1.5,1.5-2.8,1.5-5.9v-11.1h-2.1.2Z"/>
  <path class="cls-1" d="M107.6,3.2l12.8,7.3.5-.9-12.8-7.3s-.5.9-.5.9Z"/>
  <path class="cls-3" d="M119.9,9.6h.9v14.6h-.9v-14.6Z"/>
  <path class="cls-1" d="M108,2.3l-12.8,7.3.5.9,12.8-7.3s-.5-.9-.5-.9Z"/>
  <path class="cls-3" d="M96,9.2l24.6,14.4-.5.8-24.6-14.4s.5-.8.5-.8Z"/>
  <path class="cls-1" d="M96.1,24.4l-.5-.8,24.5-14.4.5.8s-24.5,14.4-24.5,14.4Z"/>
  <path class="cls-3" d="M107.6,2.6h.9v28.5h-.9V2.6Z"/>
  <path class="cls-1" d="M108.1,31.5l-12.8-7.2.5-.9,12.8,7.2s-.5.9-.5.9Z"/>
  <path class="cls-1" d="M108.1,31.5l-.5-.9,12.8-7.3.5.9-12.8,7.3Z"/>
  <path class="cls-3" d="M95.3,9.6h.9v14.6h-.9v-14.6Z"/>
  <path class="cls-1" d="M41.2,72.3c0,2.7-2.1,3.2-3.8,3.2s-3.8-.6-3.8-3.2v-4.3h.9v4.3c0,1.7,1.1,2.4,2.9,2.4s2.9-.8,2.9-2.4v-4.3h.9s0,4.3,0,4.3ZM43.1,68h1.3l5.5,6v-6h.9v7.3h-.9l-5.9-6.5v6.5h-.8v-7.3h0ZM52.6,68h.9v7.3h-.9v-7.3ZM55.4,68l3.2,6.4,3.2-6.4h1l-3.8,7.3h-.9l-3.8-7.3h1.1ZM63.8,68h6.5v.8h-5.6v2.3h4.7v.8h-4.7v2.6h5.8v.8h-6.7v-7.3h0ZM71.7,68h4.2c1.2,0,2.9.3,2.9,2s-1.4,2-2.3,2l2.4,3.3h-1.1l-2.4-3.2h-2.9v3.2h-.9v-7.3h.1ZM72.5,71.3h3.1c1.3,0,2.2-.2,2.2-1.3s-1-1.2-2.2-1.2h-3.1v2.5ZM80.7,73.2c.4.6,1.1,1.5,3.3,1.5s2.7-.3,2.7-1.5c0-2.2-6.4-.3-6.4-3.2s1.4-2.2,3.4-2.2,3.1.8,3.6,1.5l-.6.5c-.3-.3-1-1.3-3-1.3s-2.5.4-2.5,1.3c0,2.2,6.4,0,6.4,3.4s-1.2,2.2-3.7,2.2-3.3-1-3.9-1.7l.7-.6h0ZM89,68h.9v7.3h-.9v-7.3ZM94.6,68.8h-3.5v-.8h8v.8h-3.6v6.5h-.9v-6.5ZM103.3,72.4l-3.8-4.4h1.2l3.1,3.6,3.1-3.6h1.2l-3.8,4.4v3h-.9v-3h0ZM112.8,68h.9v6.5h5.8v.8h-6.7s0-7.3,0-7.3ZM128.2,72.3c0,2.7-2.1,3.2-3.8,3.2s-3.8-.6-3.8-3.2v-4.3h.9v4.3c0,1.7,1.1,2.4,2.9,2.4s2.9-.8,2.9-2.4v-4.3h.9v4.3ZM123.1,66.2h.9v1h-.9v-1h0ZM124.9,66.2h.9v1h-.9v-1h0ZM130.2,68h1.3l5.5,6v-6h.9v7.3h-.9l-5.9-6.5v6.5h-.8v-7.3h-.1ZM139.7,68h6.5v.8h-5.6v2.3h4.7v.8h-4.7v2.6h5.8v.8h-6.7v-7.3h0ZM147.5,68h4.2c.8,0,2.8,0,2.8,1.9s-.4,1.3-1.1,1.5c.8.2,1.4,1,1.4,1.8,0,2-2.1,2.1-3.6,2.1h-3.8v-7.3h.1ZM148.4,71.1h3.1c1,0,2.2-.2,2.2-1.2s-1.2-1.2-2.5-1.2h-2.8v2.4h0ZM148.4,74.5h3.4c1.1,0,2.1-.2,2.1-1.3s-.8-1.4-2-1.4h-3.5v2.7ZM164.1,72.3c0,2.7-2.1,3.2-3.8,3.2s-3.8-.6-3.8-3.2v-4.3h.9v4.3c0,1.7,1.1,2.4,2.9,2.4s2.9-.8,2.9-2.4v-4.3h.9v4.3h0ZM166,68h4.2c1.2,0,2.9.3,2.9,2s-1.4,2-2.3,2l2.4,3.3h-1.1l-2.4-3.2h-2.9v3.2h-.9v-7.3h.1ZM166.9,71.3h3.1c1.3,0,2.2-.2,2.2-1.3s-1-1.2-2.2-1.2h-3.1v2.5ZM182.4,71.8v3.6h-.8v-1.1c-.5.6-1.3,1.2-2.9,1.2-2.8,0-4.2-1.7-4.2-3.8s1.7-3.9,4.2-3.9,3.1.8,3.6,2l-.7.4c-.5-1.1-1.7-1.8-2.9-1.7-2.1,0-3.2,1.1-3.2,3.2s1.1,2.9,3.3,2.9,2.8-.6,2.9-2.2h-3v-.8h3.8v.2Z"/>
</svg>