<?xml version="1.0" encoding="UTF-8"?><svg xmlns="http://www.w3.org/2000/svg" viewBox="0 0 281.89 150.66"><defs><style>.cls-1,.cls-2,.cls-3,.cls-4,.cls-5,.cls-6,.cls-7,.cls-8,.cls-9,.cls-10,.cls-11,.cls-12{stroke:#1d1d1b;}.cls-1,.cls-3,.cls-4,.cls-5,.cls-6,.cls-7,.cls-8,.cls-10,.cls-12{fill:none;}.cls-1,.cls-3,.cls-4,.cls-7{stroke-linejoin:round;}.cls-1,.cls-3,.cls-5{stroke-width:.3px;}.cls-1,.cls-4,.cls-9,.cls-10{stroke-linecap:round;}.cls-2,.cls-4,.cls-6,.cls-7,.cls-9,.cls-10{stroke-width:.6px;}.cls-2,.cls-5,.cls-6,.cls-8,.cls-9,.cls-10,.cls-11,.cls-12{stroke-miterlimit:10;}.cls-2,.cls-9,.cls-11,.cls-13{fill:#1d1d1b;}.cls-8{stroke-width:.23px;}.cls-12{stroke-width:.35px;}</style></defs><g id="MPG_Minerva"><g><path class="cls-13" d="m239.76,10.64c-17.35,0-31.46,14.11-31.46,31.46s14.11,31.46,31.46,31.46,31.46-14.11,31.46-31.46-14.12-31.46-31.46-31.46Zm0,62.05c-16.86,0-30.58-13.72-30.58-30.59s13.72-30.58,30.58-30.58,30.58,13.72,30.58,30.58-13.72,30.59-30.58,30.59Z"/><path class="cls-13" d="m258.22,39.7c-.44-.91-.14-1.51-.27-2.17-.1-.49-.83-2.11-1.29-3.23-.22-.53,1.13-.4.13-2.3-.03-.06,1.38-.58-.03-1.65-.79-.6-1.35-1.34-1.78-2-.06-.09-.12-.27,0-.39.8-.71.81-1.73-.05-2.25-.63-.38-1.34,0-2,.43-.22.14-.33.23-.55.14-.12-.05-.34-.2-.54-.34.81-.79.97-1.57.91-1.69-.04-.09-1.38-.39-3.04.3-.04-.02-.08-.04-.12-.06.68-1.18.3-2.01.25-2.07,0,0,0,0,0,0,1.24-1.73,2.48-2.89,3.69-4,0,0,.03-.03.03-.03.08-.08.11-.17-.04-.26-.13-.08-.16-.1-.32-.18-4.08-2.27-8.74-3.47-13.44-3.47-15.25,0-27.65,12.41-27.65,27.65,0,8.83,4.48,17.36,11.81,22.65.49.35.83.49.83.49.12.04.25.04.32-.06l.11-.14c.07-.09.1-.18.1-.25,0-.2-.29-.38-.63-.89-.99-1.47-1.43-3.14-1.43-4.54,0-1.53.47-2.92,1.36-4.08,1.1,1.15,3.51,3.26,3.46,5.19-.06,2.16-2.08,2.05-1.64,3.67.27,1.02,1.03.6,1.17,1.37.23,1.34,2.02,2.19,2.81,2.07.19-.03.35.13.73.51.53.54,1.85.47,2.43.36.55-.1,1.25.41,2.41.28,1.45-.16,1.82-.27,2.44-.28,1.05-.02,6.75-.1,10.81.54.7.11.92-.21.61-.75-1.47-2.56-1.67-4.73-.83-7.47,1.5.1,3.65.51,6.49-1.2,1.01-.6,1.57-1.89,1.52-2.85-.03-.62-.3-1.41-.14-2.02.22-.82.38-.8.61-.96,1.08-.76.3-1.37.13-1.43.33-.13.69-.84.31-1.37-.19-.21-.78-1.86-.1-2.21.73-.37,1.57-.53,2.42-.9.58-.24,1.04-.92.71-1.82-.4-1.08-2.61-6.15-2.68-6.3Zm-30.53,24.62c-.21.04-.89.07-.74-.82.09-.55.69-.78.99-.47-.06.43-.21.85-.26,1.29Zm26.07-37.74c.36-.23.74-.32.97-.1.79.78-.85,1.21-.51,1.81.56.98,1.45,1.92,2.24,2.52.37.28.42.92-.99,1.22-1.42.29-7.08,1.79-10.07,4.95-3.74,3.96-6.12,9.09-6.44,8.39-.33-.71-1.08-.83-.96-1.03,5.37-9.25,13.78-16.52,15.76-17.76Zm2.46,6.5c-.31.88-2.75,1.67-2.63,1.05.05-.28,0-.65.19-.68.27-.05,1.04-.32,2.24-.62.12-.03.28.04.2.26Zm-6.18,1.6c-.06-.36,2.56-1.24,2.65-.98.17.48-.54,1.77-1.42,2.1-1,.37-1.41.26-1.37.12.07-.26.2-.9.14-1.23Zm-6.08,13.67c-1.21.74-1.86-.67-2.03-.92-.07-.11-.27-.42-.16-.95.08-.42.15-.99-.12-2.79-.12-.79,1.52-2.76,1.89-3.1.38-.36.94.18.98.76.07,1.1-.55,1.68-1.18,2.15-.78.58-.92,1.33-.78,1.53.06.08.41.08.56-.25.47-.99,1.8-1.49,2.01-2.02.33-.81.09-1.34.06-1.68-.03-.3.26-.37.48-.34.28.04.41.43.55.8.86,2.25-1.31,3.61-1.66,4.14-.16.25.34,2.07-.6,2.65Zm1.82-8.72c-.65.44-1.58-.16-1.39-.42,1.2-1.71,2.8-2.9,3.44-3.3,1.03-.64,1.14-.68,1.19-.32.03.22.04,1.34-.79,2.25-.69.75-1.38.69-1.73.77-.24.05-.22.69-.72,1.03Zm-5.77,7.68c-.3-.06-.41-.64-.35-.87.13-.51.92-1.56,1.2-1.93.07-.09.21,0,.23.1.17,1.22,0,2.94-1.08,2.7Zm9.64-22.21c1.08-.49,2.13-.5,2.24-.48.25.03-.55,1.44-1.96,2.05-1.46.63-2.55.74-2.67.68-.19-.09,1.23-1.72,2.39-2.24Zm-24.96,23.45c-.43-.5-.83-.77-.88-.74-.12.08-.82,1.28-1.06,2.68-1.36-2.61-2.12-5.24-2.24-8.37-.42-10.61,8.47-19.15,19.31-19.11,2.47,0,4.51.47,6.73,1.37-.5.62-.86,1.37-1.1,1.99-.01-.58-.16-1.02-.12-1.38.03-.22-1.54.27-2.92,2.47-.32.51-.52,1.08-.65,1.6-.03-.83-.22-1.47-.28-1.46-.14.04-1.73.69-2.55,2.63-.14.34-.25.69-.33,1.03-.07-.59-.22-.98-.27-.98-.1,0-1.76.69-2.58,2.67-.19.46-.29.93-.34,1.37-.15-.69-.41-1.12-.5-1.01-.57.73-1.69,1.05-2.29,2.88-.14.43-.2.86-.2,1.26-.25-.62-.59-.98-.67-.96-.16.03-1.85,1.64-2.1,3.26-.1.64-.05,1.23.05,1.73-.32-.52-.75-.9-.93-1.44-.27.14-1.7,1.49-1.74,3.21-.02.67.08,1.3.22,1.83-.48-.86-1.15-1.27-1.23-1.22-.12.08-1.19,1.23-1.44,3.31-.06.49,0,.95.12,1.37Zm22.2-23.87c.85-1.01,2.3-1.82,2.46-1.72.17.1-.24,1.66-1.18,2.58-.94.93-2.4,1.83-2.57,1.82-.17-.01.52-1.77,1.29-2.68Zm-2.77,3.9c-.83.67-1.2,1.12-1.69,1.9-.16.27-.57-1.49.51-3.18.66-1.03,1.97-1.96,1.94-1.84-.1.41.64,1.98-.77,3.11Zm-3.04,2.25c-1.01,1.51-1.07.99-2.18,2.47-.06.08-.08-1.93.31-2.81.62-1.4,1.71-2.22,1.87-2.25.16-.03.56,1.75,0,2.59Zm-3.32,3.02c-.52.91-1,.7-1.86,1.99-.1.14-.33-1.07.19-2.7.4-1.26,1.64-2.04,1.77-2.08.2-.05.52,1.7-.1,2.79Zm-3.09,3.2c-.53,1.16-.87,1.19-1.49,1.91-.11.12-.57-1.1-.12-2.64.36-1.23,1.18-1.69,1.58-2.1.16-.16.59,1.6.03,2.82Zm-2.51,1.98c0,.35-.04.55-.14.9-.38,1.3-1.14,1.85-1.56,2.44-.17-.38-.47-.93-.48-1.76,0-1.57.95-2.91,1.55-3.34.23,0,.63.95.63,1.76Zm-2.56,3.84c-.03,1.83-1.18,2.9-1.52,3.24-.21-.36-.63-1.3-.66-2.27-.06-1.89.72-2.55,1.06-2.92.16.54,1.13.97,1.12,1.95Zm-3.62,1.88c.53.27,1.16,1.03,1.22,2.45.06,1.43-.96,2.63-1.36,2.82-.28-1.09-.81-1.32-.8-2.4.01-1.18.61-2.48.93-2.88Zm2.18,3.76c1.37-.6,2.87-.5,2.93-.45.06.06-.44,1.75-1.77,2.46-1.33.71-2.84.78-2.97.61-.08-.09.44-2.03,1.81-2.62Zm-.1-1.01c.09-.45.9-1.96,2.12-2.51h0c1.23-.55,2.65-.51,2.81-.44.16.07-.51,1.67-1.74,2.26-1.38.66-1.93.27-3.19.68Zm2.06-3.53c.06-.14,1.06-1.93,2.23-2.48,1.16-.54,2.57-.43,2.66-.4.1.03-.53,1.62-1.86,2.28-1.32.65-3.08.74-3.03.6Zm2.67-3.58c-.1-.07,1.32-1.93,2.5-2.47,1.04-.48,2.4-.38,2.51-.3.11.08-.55,1.64-1.92,2.24-1.31.57-2.99.61-3.09.54Zm3.2-3.54c-.08-.04,1-1.88,2.22-2.35,1.16-.45,2.31-.04,2.66-.02.28.02-.4,1.35-1.99,1.94-1.33.49-2.69.53-2.89.43Zm3.6-3.41c.02-.09,1.21-1.76,2.44-2.18,1.17-.4,2.59-.13,2.74-.07s-.83,1.52-2.32,1.97c-1.35.4-2.88.36-2.86.28Zm3.63-2.95c-.16-.11,1.28-1.71,2.45-2.16,1.14-.43,2.38-.35,2.48-.3.1.06-.75,1.45-2.13,2.01-1.3.52-2.64.56-2.8.45Zm-19.88,32.73c-6.48-5.16-10.36-12.95-10.36-21.08,0-14.76,12.01-26.77,26.77-26.77,4.31,0,8.63,1.08,12.42,3.05.08.04.09.14.02.2-1.11.97-2.66,2.88-3.05,3.41-2.95-1.38-6.1-2.09-9.39-2.09-12.24,0-22.19,9.95-22.19,22.19,0,5.46,1.85,10.44,5.34,14.44-.2.46-.56,1.48-.56,2.83,0,1.11.21,2.39.99,3.81Zm.04-7.45s0,0-.01.01c-3.22-3.8-4.92-8.5-4.92-13.64,0-11.75,9.56-21.31,21.31-21.31,3.1,0,6.08.65,8.87,1.93-.37.17-.79.42-1.22.78-2.45-1.04-4.92-1.53-7.64-1.53-11.1,0-20.14,9.03-20.14,20.13,0,4.82,1.5,9.05,4.45,12.6-.17.26-.41.62-.68,1.04Zm1.06-1.67c-.39-.37-1.23-1.3-1.31-2.5,0-.06,0-.12,0-.17,0-1.29.57-2.56.71-2.7.14-.14,1.6.99,1.62,2.62.02,1.41-.63,2.22-1.01,2.77Zm2.4-2.16c1.16-.55,2.88-.42,2.79-.34s-.55,1.75-1.85,2.41c-1.3.65-2.16.48-2.63.39.7-.77.55-1.91,1.7-2.45Zm1.56,13.92c-.2-.79-.12-1.88.15-2.17.52-.25,1.47-.35,1.49-.05.03.48-.33,1.63.09,3.06-.09.23-1.39.13-1.72-.84Zm.09-3.31c-.1-.59.47-1.17.46-2.46-.01-1.59-1.98-3.77-3.31-5.18.62,0,1.44-.15,2.36-.57,1.98-.92,2.37-3.02,2.42-3.1.03-.04-.44-.13-1.12-.14.07-.04.15-.07.22-.11,1.94-1.04,2.44-3.28,2.35-3.33-.04-.02-.52-.1-1.19-.08.19-.06.38-.13.59-.21,2.05-.81,2.62-3.09,2.55-3.17-.03-.03-.44-.11-1.04-.13.18-.07.37-.15.56-.25,1.87-.93,2.52-3.02,2.42-3.09-.04-.03-.42-.1-.97-.11.42-.09.87-.23,1.35-.44,2-.88,2.65-2.79,2.56-2.88-.04-.03-.38-.13-.89-.17.4-.09.84-.21,1.3-.37,1.98-.68,2.78-2.57,2.66-2.58-.27-.02-.64-.15-1.11-.24.54-.03,1.17-.13,1.96-.4,2.14-.72,2.9-2.01,2.94-2.57,0-.04-.26-.15-.67-.24.49-.09.98-.21,1.39-.38,2-.81,2.83-2.77,2.9-2.94.36-.12.75-.27,1.16-.45.21-.09.4-.19.57-.3.1.07.25.19.49.33.3.19.41.24.26.37-6.8,5.8-11.9,13.11-14.12,16.67-.06.1-.18.08-.37.07-2.38-.16-3.73,2.68-2.67,5.34-.14.54-1.27,1.58-1.35,1.66s-.31.41.07.37c.56-.05,1.27-.94,1.61-1.34.14.18.67.61.41.86-2.02,1.99-4.03,3.06-4.19,3.13-.76.37,1.26.63,4.71-2.49.2-.18.44.72.75,1.11-.59,1.95.87,5.73.64,6.91-.04.21-.16.79-.85.81-3.42.07-3.75-.09-5.49.43-.81.24-.6.77,0,.61.67-.18,1.37-.45,5.06-.22.9.06,1.94-.18,1.94-1.71,0-1.38-1.09-5.51-.72-6.07.49.37.85.38,1.03.42-.05,1.35,2.12,5.69,1.15,8.09-.36.89-1.93.82-4.62.56-4.58-.45-6.07.54-6.16-.01Zm10.52,2.96c-1.78.62-2.48-1.47-2.19-1.91.18-.27,1.3.31,2.18-.26.67-.43,1.05,1.82.01,2.17Zm-8.09,1.3c-.25-1.1-.35-3.01.11-3.44.09-.08,1.46-.28,1.44.03-.11,1.32-.64,2.79.36,4.25.37.55-1.58.63-1.91-.84Zm3.4,1.26c-.48-.12-1.8-2.22-.72-4.73.11-.27,1.76-.1,2.04-.02.28.08-.23,2.05,2.04,2.93.23.09,0,2.65-3.35,1.82Zm14.16-7c-.77,2.65-1.15,3.71,0,6.58.15.38.27.67-.07.61-2.31-.4-2.81-.78-10.08-.16-.52.04.17-1.01.09-1.73.66-.09,1.72-.39,1.95-1.47.27-1.31-.64-2.27-.54-2.46,1.03-2.01-.07-4.24-.94-7.97-.08-.35.12-.5.27-.34,4.67,5.05,7.65,6.06,9.25,6.54.16.05.13.23.07.4Zm11.94-13.8c-.98.86-2.48.93-3.08,1.49-.32.29-.46.74-.12,1.55.2.47.33.52-.34.7-1.09.29-1.24,1.72-2.62,1.46-.55-.11-.16.25.04.27.79.08,1.11-.15,1.38-.41.28-.26.65-.73,1.07-.89.44-.17.88-.16.89.17,0,.25-.55.65-.78.76.28.15,1.15.59.41,1.09-.58.39-1.37-.15-1.49-.22-.17-.1-.5-.05-.39.08.43.52,1.58.39,1.37.66-1.06,1.42-.2,2.26-.52,3.69-.33,1.45-2.31,2.25-3.84,2.52-5.2.94-10.26-3.49-13.23-6.82.27-.63.24-1.46-.04-1.17-.26.28-.21.74-.83.9-1.19.3-1.71-1.77-2.08-2.13-1.45-1.42-2.02-3.43-1.16-5.18.87-1.77,2.69-1.42,3.42-.34.9,1.33.48,2.09,1,2.49.72.56,1.44.06,1.64,0,.55-.15.51,1.3,2.38,1.23,2.01-.07,1.78-3.2,2.07-3.48,2.58-2.52,1.26-4.76.79-5.28-.13-.14.29-1.06.44-1.1,1.52-.33,2.37-1.3,2.83-2.33,0,0,2.52-.04,3.41-1.86.24-.48.98.47,2.66-.85.19-.15.37-.08.44.1,1.08,2.65,1.53,3.38,1.45,4.73-.06.98,2.62,6.43,2.82,6.9.22.52.25,1.04,0,1.26Z"/><path class="cls-13" d="m254.37,37.63c-1.46.05-3.17,1.85-3.72,2.1-.58.26-.38.43-.04.3.73-.27,1.77-1.38,3.2-1.9,1.13-.41,1.06.52,1.49.47.2-.02-.09-1-.93-.97Z"/><path class="cls-13" d="m254.7,39.06c-.12.03.13.65-.51.69-1.38.08-2.47,1.39-3.31,1.78-.84.39-1.01.39-1.14.42-.11.03-.07.17.02.19,3.51.47,4.86.34,4.89.21.06-.24-.2-.36-.14-.52.13-.39.2-1.13.05-1.64-.06-.24.52-.08.52-.4,0-.17-.18-.78-.38-.73Zm-.54,2.77c-.07.27-1.63.15-2.49.07-.2-.02-.54-.05.11-.44.51-.31,1.22-.82,2.14-1,.08-.01.22,0,.26.18.09.43.05.9-.02,1.18Z"/><path class="cls-13" d="m258.75,46.84c-.27,0-1.35.49-1.76.75-.23.15-1.33.83-1.25-.25.03-.38.27-1.31.27-1.56,0-.39-.32-.23-.33,0-.01.54-.12.95-.23,1.58-.09.54.37,1.21,1.1.82.61-.32,1.43-.88,2.16-1.02.19-.04.22-.31.04-.32Z"/><path class="cls-13" d="m238.41,50.67c-.21-.08-.15.35-.43.3-.37-.06-.06-.39-.54-.9-.24-.25-.84-.36-1.28-1.07-.7-1.12-.1-3.61.92-3.26.57.2.47,1.52.3,2.42-.1.55.75.82.83.63.13-.32-.32-.29-.42-.59-.16-.45,1.05-2.27-.53-2.8-1.15-.38-1.91,1.07-1.77,2.67.12,1.35,1.02,1.91,1.53,2.1.7.26.17,1.21,1.11,1.21.41,0,.5-.65.28-.73Z"/><path class="cls-13" d="m247.64,20.65s.1,0,.14-.04l1.95-2.47c.05-.06.03-.16-.05-.19-.11-.04-.22-.09-.33-.13-.05-.02-.11,0-.14.04l-1.96,2.48c-.05.07-.02.16.06.19.11.04.22.08.34.12Z"/><path class="cls-13" d="m244.02,19.65c.11.02.22.04.34.07.06.01.12-.02.14-.07l1.14-2.83c.03-.07-.01-.15-.09-.16-.13-.03-.25-.05-.38-.08-.03,0-.07.01-.08.04-.14.36-.94,2.33-1.16,2.87-.03.07.02.15.09.16Z"/><path class="cls-13" d="m240,19.25c.11,0,.23,0,.34,0,.06,0,.12-.05.12-.11l.28-3c0-.07-.05-.13-.12-.13-.11,0-.23,0-.34,0-.06,0-.12.05-.12.11l-.28,3c0,.07.05.13.12.13Z"/><path class="cls-13" d="m236.09,19.55c.11-.02.22-.04.34-.05.07-.01.12-.08.1-.14l-.57-2.96c-.01-.06-.07-.11-.14-.1-.11.02-.23.03-.34.05-.07.01-.11.08-.1.14l.57,2.95c.01.06.07.11.14.1Z"/><path class="cls-13" d="m232.1,20.46c.03.05.09.08.15.06.11-.04.22-.07.32-.11.07-.02.1-.1.07-.17l-1.35-2.72c-.03-.06-.09-.08-.15-.06-.11.04-.22.08-.32.12-.07.02-.1.1-.07.17l1.35,2.71Z"/><path class="cls-13" d="m228.37,22.18s.1.05.15.03c.1-.06.2-.11.3-.17.07-.04.09-.13.03-.19l-2.02-2.31s-.1-.05-.15-.03c-.1.06-.2.12-.3.18-.07.04-.08.13-.03.19l2.02,2.3Z"/><path class="cls-13" d="m224.9,24.63s.11.03.15,0c.09-.08.18-.15.27-.23.06-.05.06-.15,0-.19l-2.56-1.78s-.11-.03-.15,0c-.09.08-.18.16-.26.23-.06.05-.05.15.01.19l2.55,1.77Z"/><path class="cls-13" d="m221.88,27.74s.11,0,.14-.04c.07-.09.15-.18.23-.27.05-.06.03-.16-.05-.19l-2.94-1.15c-.05-.02-.11,0-.14.04-.07.09-.14.19-.22.28-.05.06-.02.16.05.19l2.93,1.14Z"/><path class="cls-13" d="m216.33,30.96l3.15.44c.05,0,.1-.02.12-.06.06-.11.11-.21.17-.32.04-.08,0-.17-.09-.18l-3.17-.44c-.05,0-.1.02-.13.07-.05.11-.11.21-.16.32-.04.07.01.16.09.17Z"/><path class="cls-13" d="m214.6,35.74l3.21-.31s.09-.04.1-.09c.04-.12.07-.23.11-.35.03-.08-.04-.17-.13-.16l-3.23.31c-.05,0-.09.04-.11.09-.03.12-.06.24-.09.35-.02.08.05.16.13.15Z"/><path class="cls-13" d="m217.04,39.55c.01-.12.03-.25.04-.37.01-.09-.07-.16-.16-.13l-3.13,1.09s-.08.06-.08.11c0,.12-.02.25-.02.37,0,.09.08.15.16.12l3.11-1.08s.08-.05.08-.1Z"/><path class="cls-13" d="m216.96,43.83c0-.13-.02-.26-.03-.39,0-.09-.11-.15-.19-.1l-2.84,1.86s-.06.07-.05.12c.02.12.03.25.05.37.01.09.11.13.19.08l2.81-1.85s.06-.07.05-.11Z"/><path class="cls-13" d="m217.67,48.11c-.03-.13-.07-.26-.1-.39-.02-.1-.14-.13-.21-.05l-2.31,2.54s-.04.08-.03.12c.04.12.08.24.13.37.03.09.14.11.21.04l2.28-2.51s.04-.07.03-.11Z"/><path class="cls-13" d="m218.85,51.9l-1.63,3.1s-.02.08,0,.12c.07.12.14.23.2.35.05.08.17.08.21,0l1.61-3.06s.02-.08,0-.11c-.06-.12-.13-.25-.19-.38-.04-.09-.17-.09-.22,0Z"/><path class="cls-13" d="m221.14,55.38c-.06-.08-.19-.06-.22.04l-.87,3.59s0,.08.03.11c.09.11.18.21.27.31.07.07.19.04.21-.05l.86-3.55s0-.07-.02-.1c-.09-.12-.18-.23-.26-.35Z"/></g></g><g id="MPG_MPI_Trennlinie_Parting_Line"><line class="cls-12" x1="197.49" y1="10.63" x2="197.49" y2="73.67"/></g><g id="Gebäude"><g><line class="cls-6" x1="159.39" y1="73.38" x2="159.46" y2="23.83"/><line class="cls-6" x1="181.18" y1="73.53" x2="181.26" y2="27.68"/><line class="cls-9" x1="156.6" y1="20.96" x2="186.31" y2="26.7"/><line class="cls-9" x1="156.6" y1="10.86" x2="186.31" y2="17.8"/><g><path class="cls-10" d="m181.26,27.74l-21.8-3.91s-26.47,20.82-71.12,28.58"/><line class="cls-2" x1="186.31" y1="26.7" x2="181.33" y2="29.11"/><line class="cls-11" x1="186.12" y1="17.82" x2="186.12" y2="26.72"/><line class="cls-6" x1="181.94" y1="16.74" x2="181.94" y2="25.79"/><line class="cls-6" x1="177.41" y1="15.68" x2="177.41" y2="24.89"/><line class="cls-6" x1="172.44" y1="14.63" x2="172.44" y2="23.83"/><line class="cls-6" x1="167" y1="13.27" x2="167" y2="22.92"/><line class="cls-6" x1="161.57" y1="12.06" x2="161.57" y2="21.94"/><path class="cls-4" d="m156.6,20.96s-28.13,23.15-70.82,30.24l.08-5.13c44.05-8.75,70.75-35.22,70.75-35.22v10.11"/><line class="cls-4" x1="88.34" y1="52.41" x2="88.34" y2="54.38"/><path class="cls-6" d="m88.34,63.58v8.45c58.07.75,57.98.83,71.12,1.28"/><line class="cls-10" x1="85.85" y1="51.34" x2="88.34" y2="52.26"/><line class="cls-6" x1="159.46" y1="73.31" x2="181.41" y2="73.31"/><path class="cls-7" d="m154.03,52.49h-3.77s-31,9.43-62.52,11.24v-9.05c38.01-6.03,62.37-21.04,62.37-21.04l3.92.6v18.25Z"/><path class="cls-6" d="m150.11,42.91s-26.32,12.88-62.37,16.14"/><line class="cls-6" x1="150.11" y1="33.63" x2="150.11" y2="52.49"/></g><line class="cls-8" x1="147.7" y1="18.32" x2="147.7" y2="73.08"/><line class="cls-8" x1="146.64" y1="19.38" x2="146.64" y2="72.93"/><line class="cls-8" x1="140.76" y1="23.3" x2="140.76" y2="72.93"/><line class="cls-8" x1="139.7" y1="24.06" x2="139.7" y2="72.93"/><line class="cls-8" x1="134.57" y1="27.22" x2="134.57" y2="72.78"/><line class="cls-8" x1="133.52" y1="27.83" x2="133.52" y2="72.78"/><line class="cls-8" x1="129.29" y1="30.24" x2="129.29" y2="72.63"/><line class="cls-8" x1="128.39" y1="30.84" x2="128.39" y2="72.63"/><line class="cls-8" x1="124.47" y1="32.81" x2="124.47" y2="72.63"/><line class="cls-8" x1="123.56" y1="33.26" x2="123.56" y2="72.63"/><line class="cls-8" x1="119.64" y1="34.92" x2="119.64" y2="72.55"/><line class="cls-8" x1="119.04" y1="35.52" x2="119.04" y2="72.55"/><line class="cls-8" x1="115.57" y1="36.73" x2="115.57" y2="72.55"/><line class="cls-8" x1="114.96" y1="37.18" x2="114.96" y2="72.55"/><line class="cls-8" x1="111.34" y1="38.69" x2="111.34" y2="72.4"/><line class="cls-8" x1="110.74" y1="38.99" x2="110.74" y2="72.4"/><line class="cls-8" x1="107.42" y1="39.89" x2="107.42" y2="72.4"/><line class="cls-8" x1="106.97" y1="40.35" x2="106.97" y2="72.4"/><line class="cls-8" x1="103.65" y1="41.55" x2="103.65" y2="72.25"/><line class="cls-8" x1="103.2" y1="41.4" x2="103.2" y2="72.4"/><line class="cls-8" x1="99.73" y1="42.46" x2="99.73" y2="72.25"/><line class="cls-8" x1="99.28" y1="42.76" x2="99.28" y2="72.25"/><line class="cls-8" x1="96.26" y1="43.82" x2="96.26" y2="72.25"/><line class="cls-8" x1="95.81" y1="43.82" x2="95.81" y2="72.25"/><line class="cls-8" x1="92.94" y1="44.57" x2="92.94" y2="71.95"/><line class="cls-8" x1="92.49" y1="44.57" x2="92.49" y2="72.1"/><line class="cls-8" x1="90.07" y1="45.17" x2="90.07" y2="72.1"/><line class="cls-8" x1="89.62" y1="45.33" x2="89.62" y2="72.1"/><line class="cls-5" x1="160.74" y1="24.06" x2="160.74" y2="73.38"/><line class="cls-5" x1="165.5" y1="24.89" x2="165.42" y2="73.23"/><line class="cls-5" x1="170.47" y1="25.79" x2="170.47" y2="73.16"/><line class="cls-5" x1="175" y1="26.55" x2="175" y2="73.16"/><line class="cls-5" x1="179.37" y1="27.22" x2="179.37" y2="73.08"/><g><path class="cls-5" d="m160.82,32.58v-.3l20.21,3.02.1.19s-.02.1-.07.09l-20.24-3Z"/><line class="cls-5" x1="160.82" y1="30.62" x2="181.18" y2="33.63"/><line class="cls-5" x1="160.82" y1="29.41" x2="181.03" y2="32.43"/><line class="cls-5" x1="160.67" y1="38.01" x2="181.26" y2="40.8"/><line class="cls-5" x1="160.82" y1="39.37" x2="181.33" y2="41.93"/><polygon class="cls-5" points="181.18 43.59 181.18 43.29 160.82 40.88 160.82 41.18 181.18 43.59"/><line class="cls-5" x1="160.82" y1="46.76" x2="181.33" y2="48.57"/><line class="cls-5" x1="160.82" y1="48.12" x2="181.03" y2="49.95"/><polygon class="cls-5" points="160.82 49.62 160.82 49.32 181.18 51.13 181.18 51.43 160.82 49.62"/><polyline class="cls-5" points="181.18 56.79 181.18 56.26 160.74 54.94"/><line class="cls-5" x1="181.03" y1="57.92" x2="160.74" y2="56.49"/><polygon class="cls-5" points="181.18 59.13 160.74 57.92 160.82 58.22 181.18 59.43 181.18 59.13"/><line class="cls-5" x1="181.18" y1="65.01" x2="160.67" y2="64.48"/><line class="cls-5" x1="181.28" y1="63.79" x2="160.82" y2="63.12"/><polyline class="cls-5" points="160.74 65.93 160.82 66.14 181.18 66.67 181.18 66.37 160.74 65.78"/></g><g><path class="cls-1" d="m92.11,64.63c-.9.06-1.96.15-1.96.15"/><path class="cls-1" d="m95.43,64.33c-.94.09-1.67.18-2.41.24"/><path class="cls-1" d="m98.72,63.99c-.87.1-1.61.19-2.38.27"/><path class="cls-1" d="m102.42,63.56c-.94.11-1.76.22-2.62.32"/><path class="cls-1" d="m106.41,63.05c-.94.12-1.79.24-2.68.35"/><path class="cls-1" d="m110.17,62.55c-.93.13-1.77.25-2.67.37"/><path class="cls-1" d="m114.39,61.96c-1.03.15-1.97.29-2.97.43"/><path class="cls-1" d="m118.4,61.37c-.95.14-1.82.28-2.76.42"/><path class="cls-1" d="m123,60.66c-1.12.18-2.17.35-3.29.52"/><path class="cls-1" d="m127.6,59.92c-1.04.17-2.01.34-3.06.51"/><path class="cls-1" d="m132.8,59.02c-1.15.2-2.25.41-3.43.61"/><path class="cls-1" d="m139.09,57.85c-1.45.29-2.89.57-4.44.86"/><path class="cls-1" d="m146.18,56.33c-1.65.39-3.39.79-5.35,1.19"/><path class="cls-1" d="m147.77,58.95c1.87-.45,5.13-.96,5.13-.96v-3.32s-2.99.73-5.13,1.27"/><path class="cls-1" d="m140.83,60.42c1.88-.35,3.62-.73,5.35-1.11v-2.97"/><path class="cls-1" d="m134.65,61.49c1.55-.25,2.99-.51,4.48-.77l-.04-2.87"/><path class="cls-1" d="m129.37,62.29c1.18-.17,2.27-.34,3.43-.52v-2.75"/><path class="cls-1" d="m124.54,62.94c1.04-.13,2.01-.27,3.06-.42v-2.61"/><path class="cls-1" d="m119.72,63.54c1.12-.13,2.16-.27,3.29-.41v-2.47"/><path class="cls-1" d="m115.64,64c.93-.1,1.8-.21,2.76-.32v-2.32"/><path class="cls-1" d="m111.42,64.45c1-.1,1.94-.21,2.97-.32v-2.18"/><path class="cls-1" d="m107.5,64.84c.9-.09,1.74-.18,2.67-.27v-2.02"/><path class="cls-1" d="m103.73,65.19c.89-.08,1.74-.16,2.68-.25v-1.88"/><path class="cls-1" d="m99.8,65.53c.86-.07,1.68-.15,2.62-.23v-1.74"/><path class="cls-1" d="m96.33,65.81c.78-.06,1.5-.13,2.38-.2v-1.62"/><path class="cls-1" d="m93.02,66.06c.74-.05,1.47-.15,2.41-.22v-1.51"/><path class="cls-3" d="m90.07,66.26c.43-.03,1.12-.08,2.04-.14v-1.48"/><path class="cls-1" d="m92.04,67.42c-1.24.08-1.89.15-1.89.15"/><path class="cls-1" d="m95.43,67.2c-.98.07-1.67.13-2.41.18"/><path class="cls-1" d="m98.85,66.96c-.92.07-1.71.13-2.51.19"/><path class="cls-1" d="m102.49,66.68c-.96.08-1.81.15-2.68.21"/><path class="cls-1" d="m106.41,66.36c-.95.08-1.79.15-2.68.22"/><path class="cls-1" d="m110.12,66.06c-.93.08-1.69.15-2.58.23"/><path class="cls-1" d="m123.17,64.86c-1.18.12-2.28.23-3.45.34"/><path class="cls-1" d="m127.57,64.41c-1.04.11-2,.22-3.03.32"/><path class="cls-1" d="m132.8,63.84c-1.16.13-2.26.26-3.43.39"/><path class="cls-1" d="m138.63,63.14c-1.33.17-2.62.33-3.98.49"/><path class="cls-1" d="m145.52,62.2c-1.54.23-3.05.45-4.69.66"/><path class="cls-1" d="m147.77,65.1c1.81-.22,3.55-.45,5.35-.69v-3.47c-1.67.32-3.42.63-5.35.94"/><path class="cls-1" d="m140.83,65.88c1.59-.17,3.09-.34,4.69-.52v-3.15"/><path class="cls-1" d="m134.65,66.48c1.34-.12,2.63-.25,3.98-.39v-2.95"/><path class="cls-1" d="m129.37,66.94c1.16-.09,2.25-.19,3.43-.3v-2.8"/><path class="cls-1" d="m124.54,67.31c1.02-.08,1.98-.15,3.03-.24v-2.66"/><path class="cls-3" d="m119.61,67.65c1.16-.08,2.35-.16,3.55-.24v-2.55"/><path class="cls-1" d="m107.5,68.34c.87-.04,1.7-.09,2.62-.13v-2.15"/><path class="cls-1" d="m103.73,68.51c.89-.04,1.73-.08,2.68-.12v-2.02"/><path class="cls-1" d="m99.8,68.66c.87-.03,1.72-.07,2.68-.11v-1.88"/><path class="cls-1" d="m96.35,68.79c.86-.03,1.49-.06,2.5-.09v-1.74"/><path class="cls-1" d="m93.02,68.9c.74-.02,1.43-.02,2.41-.05v-1.66"/><polyline class="cls-1" points="90.15 68.93 92.04 68.93 92.04 67.42"/><path class="cls-3" d="m92,69.95c-1.25.03-1.93.04-1.93.04"/><path class="cls-1" d="m95.38,69.87c-1.74.04-2.21.03-2.36.04"/><path class="cls-1" d="m98.85,69.79c-.93.02-1.72.05-2.51.07"/><path class="cls-1" d="m102.49,69.69c-.97.03-1.81.05-2.68.08"/><path class="cls-1" d="m106.52,69.57c-.99.03-1.87.06-2.79.08"/><path class="cls-1" d="m110.27,69.45c-.99.03-1.84.06-2.77.09"/><path class="cls-1" d="m123.13,68.99c-1.19.05-2.26.13-3.41.17"/><path class="cls-1" d="m127.57,68.8c-1.04.05-2.01.09-3.03.13"/><path class="cls-1" d="m132.8,68.42c-1.18.06-2.26.11-3.43.16"/><path class="cls-1" d="m138.78,68.12c-1.41.07-2.74.14-4.14.21"/><path class="cls-1" d="m145.52,67.75c-1.59.09-3.1.18-4.69.27"/><path class="cls-1" d="m147.77,71.25c2.72-.05,3.85-.05,5.35-.05v-3.92c-1.78.12-3.47.23-5.35.35"/><path class="cls-1" d="m140.83,71.22c1.72,0,3.24,0,4.69.02v-3.48"/><path class="cls-1" d="m134.65,71.21c1.45,0,2.79,0,4.14,0v-3.09"/><path class="cls-1" d="m129.37,71.22c1.19,0,2.28,0,3.43,0v-2.8"/><path class="cls-1" d="m124.54,71.37c1.04,0,2,0,3.03,0v-2.56"/><path class="cls-1" d="m119.72,71.42c1.51,0,2.34-.02,3.47,0l-.05-2.39"/><path class="cls-1" d="m107.5,71.42c.93,0,1.8,0,2.77,0v-1.96"/><path class="cls-1" d="m103.73,71.44c.92,0,1.82,0,2.79-.01v-1.85"/><path class="cls-1" d="m99.8,71.45c.88,0,1.72,0,2.68-.01v-1.75"/><path class="cls-1" d="m96.33,71.47c.8,0,1.59,0,2.51-.01v-1.67"/><path class="cls-1" d="m93.02,71.48c.74,0,1.53,0,2.36-.01v-1.6"/><path class="cls-1" d="m90.15,71.51s.62-.02,1.85-.02v-1.54"/></g><polyline class="cls-1" points="111.42 65.92 118.36 65.31 118.36 72.55"/></g></g><g id="MPI_EN_Master_one-line"><g id="MPI_EN_editable_Subline_one-line_Kopie"><g><path class="cls-13" d="m42.56,109.73h-4.21v4.22h-.76v-9.02h5.59v.64h-4.83v3.51h4.21v.64Z"/><path class="cls-13" d="m52.03,109.93c0,.83-.14,1.56-.43,2.19s-.7,1.11-1.23,1.45c-.53.34-1.15.51-1.85.51-1.05,0-1.9-.38-2.55-1.13s-.97-1.77-.97-3.05v-.93c0-.82.15-1.55.44-2.18.29-.63.7-1.12,1.24-1.46.53-.34,1.15-.51,1.84-.51s1.31.17,1.84.5c.53.33.94.81,1.23,1.42.29.61.44,1.32.45,2.12v1.08Zm-.76-.98c0-1.09-.25-1.94-.74-2.55-.49-.62-1.17-.92-2.02-.92s-1.51.31-2,.93c-.5.62-.75,1.48-.75,2.59v.94c0,1.07.25,1.92.74,2.54s1.17.94,2.02.94,1.54-.31,2.02-.93c.48-.62.72-1.48.72-2.58v-.95Z"/><path class="cls-13" d="m57.96,110.19h-2.62v3.76h-.77v-9.02h2.93c.96,0,1.71.23,2.25.7.54.47.81,1.12.81,1.96,0,.58-.17,1.09-.51,1.53s-.79.75-1.36.92l2.26,3.84v.08h-.81l-2.18-3.76Zm-2.62-.64h2.34c.64,0,1.16-.18,1.54-.55.39-.36.58-.83.58-1.41,0-.64-.2-1.13-.61-1.48-.41-.35-.97-.53-1.7-.53h-2.15v3.97Z"/><path class="cls-13" d="m71.98,109.62h-4.22v3.68h4.85v.64h-5.61v-9.02h5.58v.64h-4.82v3.41h4.22v.64Z"/><path class="cls-13" d="m77.57,112.83l.05.19.06-.19,2.84-7.91h.84l-3.36,9.02h-.73l-3.36-9.02h.83l2.84,7.91Z"/><path class="cls-13" d="m89.9,109.93c0,.83-.14,1.56-.43,2.19s-.7,1.11-1.23,1.45c-.53.34-1.15.51-1.85.51-1.05,0-1.9-.38-2.55-1.13s-.97-1.77-.97-3.05v-.93c0-.82.15-1.55.44-2.18.29-.63.7-1.12,1.24-1.46.53-.34,1.15-.51,1.84-.51s1.31.17,1.84.5c.53.33.94.81,1.23,1.42.29.61.44,1.32.45,2.12v1.08Zm-.76-.98c0-1.09-.25-1.94-.74-2.55-.49-.62-1.17-.92-2.02-.92s-1.51.31-2,.93c-.5.62-.75,1.48-.75,2.59v.94c0,1.07.25,1.92.74,2.54s1.17.94,2.02.94,1.54-.31,2.02-.93c.48-.62.72-1.48.72-2.58v-.95Z"/><path class="cls-13" d="m93.22,113.3h4.46v.64h-5.22v-9.02h.77v8.38Z"/><path class="cls-13" d="m105.65,104.93v6.16c0,.61-.14,1.14-.4,1.59s-.64.8-1.12,1.04c-.48.24-1.03.36-1.66.36-.95,0-1.71-.26-2.28-.78s-.87-1.24-.89-2.15v-6.21h.76v6.1c0,.76.22,1.35.65,1.77s1.02.63,1.77.63,1.33-.21,1.76-.63c.43-.42.65-1.01.65-1.76v-6.11h.77Z"/><path class="cls-13" d="m114.53,105.57h-3.09v8.38h-.76v-8.38h-3.09v-.64h6.94v.64Z"/><path class="cls-13" d="m117.55,113.95h-.76v-9.02h.76v9.02Z"/><path class="cls-13" d="m127.3,109.93c0,.83-.14,1.56-.43,2.19s-.7,1.11-1.23,1.45c-.53.34-1.15.51-1.85.51-1.05,0-1.9-.38-2.55-1.13s-.97-1.77-.97-3.05v-.93c0-.82.15-1.55.44-2.18.29-.63.7-1.12,1.24-1.46.53-.34,1.15-.51,1.84-.51s1.31.17,1.84.5c.53.33.94.81,1.23,1.42.29.61.44,1.32.45,2.12v1.08Zm-.76-.98c0-1.09-.25-1.94-.74-2.55-.49-.62-1.17-.92-2.02-.92s-1.51.31-2,.93c-.5.62-.75,1.48-.75,2.59v.94c0,1.07.25,1.92.74,2.54s1.17.94,2.02.94,1.54-.31,2.02-.93c.48-.62.72-1.48.72-2.58v-.95Z"/><path class="cls-13" d="m136.58,113.95h-.76l-5.19-7.72v7.72h-.77v-9.02h.77l5.19,7.73v-7.73h.76v9.02Z"/><path class="cls-13" d="m144.49,111.41h-4.1l-.93,2.53h-.8l3.41-9.02h.73l3.41,9.02h-.79l-.94-2.53Zm-3.86-.64h3.62l-1.81-4.91-1.81,4.91Z"/><path class="cls-13" d="m151.54,110.19h-2.62v3.76h-.77v-9.02h2.93c.96,0,1.71.23,2.25.7.54.47.81,1.12.81,1.96,0,.58-.17,1.09-.51,1.53s-.79.75-1.36.92l2.26,3.84v.08h-.81l-2.18-3.76Zm-2.62-.64h2.34c.64,0,1.16-.18,1.54-.55.39-.36.58-.83.58-1.41,0-.64-.2-1.13-.61-1.48-.41-.35-.97-.53-1.7-.53h-2.15v3.97Z"/><path class="cls-13" d="m159.21,109.85l2.76-4.92h.88l-3.26,5.63v3.4h-.76v-3.4l-3.25-5.63h.91l2.73,4.92Z"/><path class="cls-13" d="m173.39,111.41h-4.1l-.93,2.53h-.8l3.41-9.02h.73l3.41,9.02h-.79l-.94-2.53Zm-3.86-.64h3.62l-1.81-4.91-1.81,4.91Z"/><path class="cls-13" d="m183.79,113.95h-.76l-5.19-7.72v7.72h-.77v-9.02h.77l5.19,7.73v-7.73h.76v9.02Z"/><path class="cls-13" d="m192.66,105.57h-3.09v8.38h-.76v-8.38h-3.09v-.64h6.94v.64Z"/><path class="cls-13" d="m201.44,113.95h-.77v-4.33h-5.16v4.33h-.76v-9.02h.76v4.05h5.16v-4.05h.77v9.02Z"/><path class="cls-13" d="m207.74,110.19h-2.62v3.76h-.77v-9.02h2.93c.96,0,1.71.23,2.25.7.54.47.81,1.12.81,1.96,0,.58-.17,1.09-.51,1.53s-.79.75-1.36.92l2.26,3.84v.08h-.81l-2.18-3.76Zm-2.62-.64h2.34c.64,0,1.16-.18,1.54-.55.39-.36.58-.83.58-1.41,0-.64-.2-1.13-.61-1.48-.41-.35-.97-.53-1.7-.53h-2.15v3.97Z"/><path class="cls-13" d="m219.73,109.93c0,.83-.14,1.56-.43,2.19s-.7,1.11-1.23,1.45c-.53.34-1.15.51-1.85.51-1.05,0-1.9-.38-2.55-1.13s-.97-1.77-.97-3.05v-.93c0-.82.15-1.55.44-2.18.29-.63.7-1.12,1.24-1.46.53-.34,1.15-.51,1.84-.51s1.31.17,1.84.5c.53.33.94.81,1.23,1.42.29.61.44,1.32.45,2.12v1.08Zm-.76-.98c0-1.09-.25-1.94-.74-2.55-.49-.62-1.17-.92-2.02-.92s-1.51.31-2,.93c-.5.62-.75,1.48-.75,2.59v.94c0,1.07.25,1.92.74,2.54s1.17.94,2.02.94,1.54-.31,2.02-.93c.48-.62.72-1.48.72-2.58v-.95Z"/><path class="cls-13" d="m223.04,110.27v3.67h-.76v-9.02h3.07c.94,0,1.68.24,2.22.72.54.48.82,1.14.82,1.98s-.26,1.5-.78,1.96-1.28.69-2.27.69h-2.29Zm0-.64h2.31c.74,0,1.3-.18,1.69-.53.39-.35.58-.84.58-1.47s-.19-1.12-.58-1.49c-.39-.37-.93-.56-1.65-.57h-2.36v4.06Z"/><path class="cls-13" d="m237.4,109.93c0,.83-.14,1.56-.43,2.19s-.7,1.11-1.23,1.45c-.53.34-1.15.51-1.85.51-1.05,0-1.9-.38-2.55-1.13s-.97-1.77-.97-3.05v-.93c0-.82.15-1.55.44-2.18.29-.63.7-1.12,1.24-1.46.53-.34,1.15-.51,1.84-.51s1.31.17,1.84.5c.53.33.94.81,1.23,1.42.29.61.44,1.32.45,2.12v1.08Zm-.76-.98c0-1.09-.25-1.94-.74-2.55-.49-.62-1.17-.92-2.02-.92s-1.51.31-2,.93c-.5.62-.75,1.48-.75,2.59v.94c0,1.07.25,1.92.74,2.54s1.17.94,2.02.94,1.54-.31,2.02-.93c.48-.62.72-1.48.72-2.58v-.95Z"/><path class="cls-13" d="m240.72,113.3h4.46v.64h-5.22v-9.02h.77v8.38Z"/><path class="cls-13" d="m253.54,109.93c0,.83-.14,1.56-.43,2.19s-.7,1.11-1.23,1.45c-.53.34-1.15.51-1.85.51-1.05,0-1.9-.38-2.55-1.13s-.97-1.77-.97-3.05v-.93c0-.82.15-1.55.44-2.18.29-.63.7-1.12,1.24-1.46.53-.34,1.15-.51,1.84-.51s1.31.17,1.84.5c.53.33.94.81,1.23,1.42.29.61.44,1.32.45,2.12v1.08Zm-.76-.98c0-1.09-.25-1.94-.74-2.55-.49-.62-1.17-.92-2.02-.92s-1.51.31-2,.93c-.5.62-.75,1.48-.75,2.59v.94c0,1.07.25,1.92.74,2.54s1.17.94,2.02.94,1.54-.31,2.02-.93c.48-.62.72-1.48.72-2.58v-.95Z"/><path class="cls-13" d="m262.6,112.88c-.26.38-.68.67-1.24.88-.56.21-1.2.32-1.89.32s-1.33-.17-1.88-.51c-.55-.34-.98-.82-1.28-1.44-.3-.62-.46-1.33-.46-2.13v-1.14c0-1.25.32-2.24.95-2.96.63-.72,1.48-1.09,2.55-1.09.93,0,1.68.24,2.24.71.57.47.9,1.12,1.01,1.96h-.76c-.11-.66-.38-1.17-.81-1.51s-.99-.51-1.68-.51c-.84,0-1.51.3-2,.9-.49.6-.74,1.45-.74,2.54v1.07c0,.69.12,1.29.35,1.82.23.53.57.94,1,1.23.44.29.94.43,1.5.43.66,0,1.22-.1,1.69-.31.31-.14.53-.3.68-.48v-2.33h-2.42v-.64h3.18v3.21Z"/><path class="cls-13" d="m268.04,109.85l2.76-4.92h.88l-3.26,5.63v3.4h-.76v-3.4l-3.25-5.63h.91l2.73,4.92Z"/></g></g><g id="MPI_EN_Lettering_one-line"><g><polygon class="cls-13" points="68.34 98.19 68.29 98.19 65.27 89.42 62.13 89.42 62.13 101.32 64.52 101.32 64.52 93.18 64.57 93.17 67.51 101.32 69.13 101.32 72.08 93.19 72.13 93.19 72.13 101.32 74.51 101.32 74.51 89.42 71.4 89.42 68.34 98.19"/><path class="cls-13" d="m83.71,89.42h-2.44l-4.02,11.91h2.49l.8-2.57h3.86l.81,2.57h2.49l-4-11.91Zm-2.58,7.47l1.32-4.2h.05l1.32,4.2h-2.69Z"/><polygon class="cls-13" points="99.45 101.32 95.71 95.32 99.24 89.42 96.46 89.42 94.23 93.64 92.03 89.42 89.26 89.42 92.8 95.32 89.17 101.32 91.96 101.32 94.26 97.03 96.56 101.32 99.45 101.32"/><path class="cls-13" d="m114.88,90.46c-.79-.7-1.86-1.05-3.23-1.05h-4.56v11.91h2.39v-4.32h2.17c1.37,0,2.44-.35,3.23-1.04.78-.69,1.18-1.61,1.18-2.75s-.39-2.06-1.18-2.76Zm-1.72,4.16c-.34.36-.85.54-1.51.54h-2.17v-3.91h2.17c.67,0,1.18.19,1.52.56s.51.85.51,1.42-.17,1.02-.52,1.39Z"/><polygon class="cls-13" points="125.37 99.49 120.99 99.49 120.99 89.42 118.6 89.42 118.6 101.32 125.37 101.32 125.37 99.49"/><path class="cls-13" d="m130.88,89.42l-4.02,11.91h2.49l.8-2.57h3.86l.81,2.57h2.49l-4-11.91h-2.44Zm-.13,7.47l1.32-4.2h.05l1.32,4.2h-2.69Z"/><polygon class="cls-13" points="142.2 93.3 142.25 93.29 147.05 101.32 149.44 101.32 149.44 89.42 147.05 89.42 147.05 97.43 147 97.44 142.2 89.42 139.81 89.42 139.81 101.32 142.2 101.32 142.2 93.3"/><path class="cls-13" d="m160.76,90.31c-.82-.71-1.95-1.06-3.4-1.06s-2.51.46-3.37,1.39c-.86.92-1.28,2.11-1.28,3.56v2.36c0,1.46.44,2.64,1.32,3.56.88.92,2.03,1.38,3.46,1.38s2.5-.36,3.3-1.08c.8-.72,1.18-1.71,1.16-2.98l-.02-.05h-2.31c0,.77-.18,1.35-.53,1.72-.35.37-.88.56-1.6.56-.75,0-1.34-.29-1.76-.87-.42-.58-.63-1.32-.63-2.24v-2.38c0-.91.2-1.65.6-2.23.4-.58.96-.86,1.67-.86.77,0,1.34.19,1.71.56.37.37.55.94.55,1.71h2.32l.02-.05c.02-1.29-.38-2.28-1.19-2.99Z"/><polygon class="cls-13" points="174.43 89.42 171.48 89.42 168.21 94.28 167.54 94.28 167.54 89.42 165.16 89.42 165.16 101.32 167.54 101.32 167.54 96.35 168.42 96.35 171.71 101.32 174.75 101.32 170.31 94.95 174.43 89.42"/><path class="cls-13" d="m184.69,101.34h-2.45v-11.88h2.45v11.88Z"/><path class="cls-13" d="m197.87,101.34h-2.45l-4.76-7.82v7.82h-2.45v-11.88h2.45l4.77,7.83v-7.83h2.44v11.88Z"/><path class="cls-13" d="m207.34,98.23c0-.46-.16-.82-.49-1.06-.33-.25-.91-.51-1.76-.78-.85-.27-1.52-.54-2.01-.81-1.35-.73-2.02-1.71-2.02-2.95,0-.64.18-1.21.54-1.72.36-.5.88-.9,1.56-1.18.68-.28,1.44-.42,2.28-.42s1.6.15,2.27.46c.66.31,1.18.74,1.55,1.3.37.56.55,1.2.55,1.91h-2.45c0-.54-.17-.97-.51-1.27-.34-.3-.82-.45-1.44-.45s-1.06.13-1.39.38c-.33.25-.5.59-.5,1,0,.39.19.71.58.97.39.26.96.5,1.72.73,1.39.42,2.41.94,3.04,1.56.64.62.95,1.39.95,2.32,0,1.03-.39,1.83-1.17,2.42-.78.58-1.83.88-3.14.88-.91,0-1.75-.17-2.5-.5-.75-.33-1.32-.79-1.72-1.37-.39-.58-.59-1.26-.59-2.02h2.46c0,1.31.78,1.97,2.35,1.97.58,0,1.04-.12,1.36-.35.33-.24.49-.57.49-.99Z"/><path class="cls-13" d="m221.06,91.45h-3.64v9.9h-2.45v-9.9h-3.59v-1.98h9.67v1.98Z"/><path class="cls-13" d="m225.89,101.34h-2.45v-11.88h2.45v11.88Z"/><path class="cls-13" d="m237.7,91.45h-3.64v9.9h-2.45v-9.9h-3.59v-1.98h9.67v1.98Z"/><path class="cls-13" d="m248.92,89.47v7.82c0,1.3-.41,2.33-1.22,3.08-.81.76-1.92,1.13-3.33,1.13s-2.49-.37-3.3-1.1c-.82-.73-1.23-1.74-1.25-3.03v-7.91h2.45v7.84c0,.78.19,1.34.56,1.7.37.36.89.53,1.55.53,1.38,0,2.08-.72,2.1-2.17v-7.91h2.46Z"/><path class="cls-13" d="m260.7,91.45h-3.64v9.9h-2.45v-9.9h-3.59v-1.98h9.67v1.98Z"/><path class="cls-13" d="m270.08,96.2h-4.7v3.18h5.51v1.97h-7.96v-11.88h7.95v1.98h-5.5v2.83h4.7v1.92Z"/></g></g></g></svg>